/* XPM */
static char * auto_log_icon_xpm[] = {
"34 34 225 2",
"  	c None",
". 	c #868686",
"+ 	c #7C7C7C",
"@ 	c #797674",
"# 	c #747474",
"$ 	c #6B6B6B",
"% 	c #636363",
"& 	c #595959",
"* 	c #4B4B4B",
"= 	c #3D3D3D",
"- 	c #2E2E2E",
"; 	c #000000",
"> 	c #C9C9C9",
", 	c #BABABA",
"' 	c #ACACAC",
") 	c #9D9C9B",
"! 	c #444444",
"~ 	c #FFFECC",
"{ 	c #FCB269",
"] 	c #EA9D53",
"^ 	c #764E2A",
"/ 	c #FEFEFE",
"( 	c #F4F4F4",
"_ 	c #E3E3E2",
": 	c #DBDAD9",
"< 	c #898A8A",
"[ 	c #FEA332",
"} 	c #F9EFBC",
"| 	c #FB0000",
"1 	c #FE8B02",
"2 	c #F6EAB7",
"3 	c #FD8401",
"4 	c #FFA13A",
"5 	c #F6DDAE",
"6 	c #805430",
"7 	c #FD7E00",
"8 	c #7B5128",
"9 	c #C4C4C4",
"0 	c #FF9001",
"a 	c #FD982E",
"b 	c #FED5B4",
"c 	c #885A2F",
"d 	c #FDA141",
"e 	c #FADCBB",
"f 	c #333333",
"g 	c #C35F04",
"h 	c #F17B03",
"i 	c #FECD9F",
"j 	c #AF723A",
"k 	c #FCFAF5",
"l 	c #D5D5D5",
"m 	c #BCBAB3",
"n 	c #A5A196",
"o 	c #87837E",
"p 	c #5C5957",
"q 	c #AA5004",
"r 	c #EB7903",
"s 	c #FD932E",
"t 	c #FDD49C",
"u 	c #A35E28",
"v 	c #B8B3AB",
"w 	c #7C7875",
"x 	c #7F3903",
"y 	c #B85804",
"z 	c #FD9524",
"A 	c #F7BB7A",
"B 	c #FDB47E",
"C 	c #B8824C",
"D 	c #F2EEEA",
"E 	c #D2CCC0",
"F 	c #968F85",
"G 	c #813A04",
"H 	c #A44B04",
"I 	c #E77604",
"J 	c #FF8D17",
"K 	c #F3AC83",
"L 	c #FDBE7A",
"M 	c #E29558",
"N 	c #F6F1E9",
"O 	c #F8F3EB",
"P 	c #EEEBE4",
"Q 	c #E4DFD9",
"R 	c #DCD5CC",
"S 	c #211001",
"T 	c #8C4004",
"U 	c #A84E03",
"V 	c #E5884C",
"W 	c #EFC1AE",
"X 	c #FFFBDF",
"Y 	c #FBB390",
"Z 	c #F9F5F0",
"` 	c #F3EDE3",
" .	c #ECE4DA",
"..	c #E0DBD3",
"+.	c #DFDACE",
"@.	c #B2A99C",
"#.	c #100801",
"$.	c #F78403",
"%.	c #E17631",
"&.	c #F2AF97",
"*.	c #FEE1CB",
"=.	c #FFD1A9",
"-.	c #EBE2D3",
";.	c #E5DBCA",
">.	c #B5A995",
",.	c #FF7B16",
"'.	c #F1780A",
").	c #F9B99A",
"!.	c #FFF6DD",
"~.	c #F6F0E7",
"{.	c #F2E9DC",
"].	c #180A01",
"^.	c #944504",
"/.	c #B95600",
"(.	c #E76D24",
"_.	c #F3712F",
":.	c #E56430",
"<.	c #E07950",
"[.	c #F1AD8C",
"}.	c #BCAB92",
"|.	c #0D0703",
"1.	c #7D3D15",
"2.	c #A24D0F",
"3.	c #A6550D",
"4.	c #BB602E",
"5.	c #C76227",
"6.	c #C18064",
"7.	c #DC946E",
"8.	c #F2E8D7",
"9.	c #EEE0CB",
"0.	c #E5DAC4",
"a.	c #21100E",
"b.	c #843C1C",
"c.	c #624F30",
"d.	c #734629",
"e.	c #94511C",
"f.	c #AB6539",
"g.	c #C7825B",
"h.	c #EB9E77",
"i.	c #FFC9AD",
"j.	c #FFEACE",
"k.	c #D0CFCA",
"l.	c #F0E2CE",
"m.	c #EADDCA",
"n.	c #EBDBC3",
"o.	c #120502",
"p.	c #443E3A",
"q.	c #5D4A36",
"r.	c #5B4728",
"s.	c #A15E3A",
"t.	c #CC8062",
"u.	c #E49C7D",
"v.	c #FAB28F",
"w.	c #E9D8BD",
"x.	c #151513",
"y.	c #494534",
"z.	c #834F31",
"A.	c #9C5630",
"B.	c #C67E5C",
"C.	c #F8D1BE",
"D.	c #CDC9C0",
"E.	c #E5D5BD",
"F.	c #BEA88A",
"G.	c #2A2622",
"H.	c #675242",
"I.	c #965534",
"J.	c #EAA282",
"K.	c #DCD4C7",
"L.	c #E5D1B2",
"M.	c #535353",
"N.	c #969696",
"O.	c #644533",
"P.	c #805A42",
"Q.	c #DB9770",
"R.	c #B48E6C",
"S.	c #C9C1B6",
"T.	c #F0E5D3",
"U.	c #E9D6B9",
"V.	c #E8D4B5",
"W.	c #BDA481",
"X.	c #B5B4B3",
"Y.	c #382F24",
"Z.	c #7B5848",
"`.	c #6E4C36",
" +	c #332A1D",
".+	c #807255",
"++	c #D9CCBC",
"@+	c #BAB6B2",
"#+	c #A8A39E",
"$+	c #98958F",
"%+	c #2D251B",
"&+	c #1F1A17",
"*+	c #B79F7C",
"=+	c #E5CDAA",
"-+	c #BEA27A",
";+	c #CAC7C2",
">+	c #B5B0A7",
",+	c #A49E96",
"'+	c #969087",
")+	c #C6BAAA",
"!+	c #C7BFB4",
"~+	c #A29B8D",
"{+	c #968C7C",
"]+	c #4F4A37",
"^+	c #B1A48E",
"/+	c #D5C5AC",
"(+	c #E2C9A3",
"_+	c #E2C69E",
":+	c #CCBDA9",
"<+	c #B4A692",
"[+	c #A89B86",
"}+	c #D0BEA4",
"|+	c #D3C1A4",
"1+	c #C5B7A0",
"2+	c #BC9C6D",
"3+	c #2E2A1E",
"4+	c #C6B8A3",
"5+	c #C4B49C",
"6+	c #C2AD91",
"7+	c #C1AA8D",
"8+	c #C0A985",
"9+	c #322A22",
"0+	c #322E2A",
"a+	c #2E2A24",
"b+	c #0A0A06",
"                . + @ # $ % % % % & * * * = - ; ; ;                 ",
"                # > > > > > > > > > , , ' ) ) ! ; ; ;               ",
"~ { ] ^         @ > / / / / / / / / / / ( _ : ! < ; ; ;             ",
"[ } { ] ^ ; ;   # > / / / / / / / / | / / ( _ * > < ; ; ;           ",
"1 [ 2 { ] ^ ; ; $ > / / / / / / / / | / / / ( * / > < ; ; ;         ",
"3 3 4 5 { ] 6 ; $ > / / / / / / / | / | / / / & / / > < ; ; ;       ",
"3 3 7 4 2 { ] 8 $ 9 / / / / / / / | / | / / / & _ / / > < ; ; ;     ",
"0 3 3 3 a b { ] c , / / / / / / | / / / | / / % > : / / > < ; ; ;   ",
"3 1 3 3 7 d e { ] c ( / / / / / | / / / | / / $ * * * ! = = f ; ; ; ",
"g h 1 3 3 7 a i { ] j ( / / / | | | | | | | / k : l m n o # p ; ; ; ",
"q g r 1 3 3 7 s t { ] u ( / / | / / / / / | / / k _ : > v n w ; ; ; ",
"x q y r 1 3 3 7 z A B ] C ( | / / / / / / / | k / D _ : E v F ; ; ; ",
"; G H y I 1 1 3 3 J K K L M | / / / / / / / | k N O P Q R E n ; ; ; ",
"; S T U y r 1 1 3 7 V W X e Y ( / / / / / / k Z D D `  ...+.@.; ; ; ",
"; ; #.T H y r 0 3 $.%.&.*.O =.: ( / / / k k O O O P `  .-.;.>.; ; ; ",
"; ; ; S x H y r ,.'.%.K ).!.k Y _ / / k k Z Z ~.D  .{. ...;.>.; ; ; ",
"; ; ; ; ].^.U /.(._.:.<.[.e ~.=.l ( k k O O O ~.{.{.-. .-.;.}.; ; ; ",
"  ; ; ; ; |.1.2.3.4.5.6.7.).=.k Y _ Z ( O ~.~.{.{.8.-.9.9.0.}.; ; ; ",
"    ; ; ; ; a.b.c.d.e.f.g.h.i.j.=.k.P O O ~.~.{.8.8.l.9.m.n.}.; ; ; ",
"      ; ; ; ; o.p.q.r.6 s.t.u.i.!.v.: ` ~.{.8.8.8.l.l.w.n.w.}.; ; ; ",
"        ; ; ; ; x.p.y.q.z.A.B.h.C.=.D. .{.{.8.l.l.m.m.w.E.E.F.; ; ; ",
"          ; ; ; ! + ; G.H.z.I.t.J.*.Y K.8.8.l.l.9.9.n.w.L.L.F.; ; ; ",
"            ; ; M.N.' < ; p.O.P.g.Q.R.S.m.-.T.m.9.w.E.U.V.V.W.; ; ; ",
"              ; & X.l X.) < x.Y.Z.`. +.+++m.m.n.2 U.V.V.V.V.W.; ; ; ",
"                & 9 D k.@+#+$+< ; %+&+y.*+0.n.n.w.w.V.=+=+=+-+ +; ; ",
"                & > k P ..;+>+,+'+< ; ; - )+L.w.U.L.L.=+=+=+*+ +; ; ",
"                & > O D {. .K.!+@.~+{+< ]+^+/+L.L.L.=+=+(+_+-+%+; ; ",
"                & > O ` ` {.-.m.++:+<+F {+[+}+L.L.=+=+_+(+|+Q.%+; ; ",
"                M.> O ` {.8.-.-.m.E./+1+^+<+|+=+=+=+_+_+(+_+2+3+; ; ",
"                * > D {.{.8.l.9.-.m.0.L./+}+(+=+=+(+_+_+_+_+2+3+; ; ",
"                = S.!+!+)+)+4+1+5+5+6+6+7+7+8+W.-+-+-+-+2+2+2+%+; ; ",
"                x.9+0+9+0+a+9+0+a+a+a+a+3+9+3+3+3+G.3+3+%+3+%+b+; ; ",
"                ; ; ; ; ; ; ; ; ; ; ; ; ; ; ; ; ; ; ; ; ; ; ; ; ; ; ",
"                ; ; ; ; ; ; ; ; ; ; ; ; ; ; ; ; ; ; ; ; ; ; ; ; ; ; "};
