/* XPM */
static const char * block_icon[] = {
"16 16 23 1",
" 	c None",
".	c #000000000000",
"X	c #FFFFFFFFFFFF",
"o	c #CF3CCF3CCF3C",
"O	c #FFFF9A699A69",
"+	c #EFBEEFBEEFBE",
"@	c #FFFFFFFF9A69",
"#	c #FFFFFFFFCF3C",
"$	c #CF3CCF3C30C2",
"%	c #CF3C9A6930C2",
"&	c #9A699A696595",
"*	c #FFFFCF3CCF3C",
"=	c #FFFFFFFF30C2",
"-	c #DF7DDF7DDF7D",
";	c #FFFFCF3C6595",
":	c #9A6965956595",
">	c #FFFFCF3C30C2",
",	c #FFFFFFFF6595",
"<	c #FFFFFFFF0000",
"1	c #9A699A699A69",
"2	c #75D675D675D6",
"3	c #208120812081",
"4	c #659565956595",
"   .. ..        ",
"   .X..o..      ",
".. .XXX..O..... ",
".+..@#XXX..$%%. ",
".+++..@##XX..&O.",
" .*=**..-@#XX.%.",
" .*;**+;..:@#.& ",
" .*;>o*;;o..@.& ",
"  .**+*o*o*.@.. ",
"  .**;*o**o.,.  ",
"   .;>;;;;;.<.  ",
"   .;;;;;;;%..1 ",
"    ..;;;>;;..22",
"      ..;;;>.32 ",
"        ..;;.4  ",
"          ...   "};
