/* XPM */
static char *connect_profile_icon[] = {
/* columns rows colors chars-per-pixel */
"32 32 126 2",
"   c #000000",
".  c #000c0f",
"X  c #131313",
"o  c #002129",
"O  c #002933",
"+  c #085f5d",
"@  c #0a6b69",
"#  c #1c7674",
"$  c #267c79",
"%  c #42413f",
"&  c #464646",
"*  c #665c47",
"=  c #645c4e",
"-  c #665e51",
";  c #6d614b",
":  c #6b6355",
">  c #6f6857",
",  c #73664f",
"<  c #706557",
"1  c #706758",
"2  c #746a5a",
"3  c #7b6e56",
"4  c #7d7158",
"5  c #787365",
"6  c #2d807e",
"7  c #0f8a84",
"8  c #328381",
"9  c #398987",
"0  c #408e8b",
"q  c #45918e",
"w  c #4b9592",
"e  c #549896",
"r  c #559b99",
"t  c #5a9e9b",
"y  c #5ea09d",
"u  c #609e9d",
"i  c #62a29f",
"p  c #66a4a1",
"a  c #6ba6a3",
"s  c #76aca9",
"d  c #82755b",
"f  c #85785d",
"g  c #817767",
"h  c #867c6b",
"j  c #8c7e62",
"k  c #928264",
"l  c #968669",
"z  c #9b8b6b",
"x  c #918572",
"c  c #968a75",
"v  c #998b76",
"b  c #9c8f79",
"n  c #9e936b",
"m  c #9f9573",
"M  c #9e917b",
"N  c #a2947d",
"B  c #c3aa7e",
"V  c #83b4b3",
"C  c #8ebab9",
"Z  c #a79980",
"A  c #aa9c82",
"S  c #a99f89",
"D  c #aea182",
"F  c #aba18a",
"G  c #b0a086",
"H  c #bcab8d",
"J  c #b2a790",
"K  c #b5aa93",
"L  c #c6ad80",
"P  c #c8af82",
"I  c #cbb285",
"U  c #cfb588",
"Y  c #c5b593",
"T  c #ccb996",
"R  c #c8b899",
"E  c #d0b688",
"W  c #d7bf90",
"Q  c #ccbea2",
"!  c #d6c295",
"~  c #d9c49c",
"^  c #cec2ac",
"/  c #cec4b0",
"(  c #dbc8a3",
")  c #dcccab",
"_  c #d1c6b1",
"`  c #d4cab4",
"'  c #dbccb4",
"]  c #dcd0b7",
"[  c #ddd1ba",
"{  c #e4cda5",
"}  c #e4d0ac",
"|  c #ebd4ac",
" . c #e7d5b0",
".. c #e9d5b3",
"X. c #ecdbbc",
"o. c #dfd3c0",
"O. c #deddd9",
"+. c #e1d7c6",
"@. c #e4dbcd",
"#. c #e2ddd5",
"$. c #e3dfda",
"%. c #eee0c7",
"&. c #eee0c8",
"*. c #e3e1da",
"=. c #e9e4dd",
"-. c #f4e3c3",
";. c #f2e4ca",
":. c #f3e7d2",
">. c #f4e9d4",
",. c #f3ebdb",
"<. c #f8eede",
"1. c #e4e3e1",
"2. c #e9e7e4",
"3. c #e9e8e8",
"4. c #f7efe0",
"5. c #f0eeeb",
"6. c #f8efe1",
"7. c #f7f1e2",
"8. c #f5f2ed",
"9. c #f8f2e4",
"0. c #f9f4eb",
"q. c #f6f4f0",
"w. c #faf7f0",
"e. c #fbf9f4",
"r. c #fefefd",
"t. c None",
/* pixels */
"t.  t.t.t.t.t.t.t.t.t.t.t.t.t.t.t.t.t.t.t.t.t.t.t.t.t.t.t.t.t.t.",
"O s     t.t.t.t.t.t.t.t.t.t.t.t.t.t.t.t.t.t.t.t.t.t.t.t.t.t.t.t.",
"O V # G   t.t.t.t.t.t.t.t.t.t.t.t.t.t.t.t.t.t.t.t.t.t.t.t.t.t.t.",
"O C # G r.  t.t.t.t.t.t.t.t.t.t.t.t.t.t.t.t.t.    t.t.t.t.t.t.t.",
"O V # G r.r.  t.t.t.t.t.t.t.t.t.t.t.t.t.t.    =.  t.t.t.t.t.t.t.",
"O a # G r.r.r.  t.t.t.t.t.t.t.t.t.t.t.    $.e.w.  t.t.t.t.t.t.t.",
"O a # G r.r.r.r.  t.t.t.t.t.t.t.t.t.  O.e.e.e.e.  t.t.t.t.t.t.t.",
"O p # G r.r.r.r.r.  t.t.t.t.t.t.    2.e.e.e.e.e.  t.t.t.t.t.t.t.",
"O p # G r.r.r.r.r.r.  t.t.t.t.  O.e.e.e.e.r.e.e.X & & & & % t.t.",
"O t # S r.r.r.r.r.r.r.  t.t.  [ <.e.e.r.r.r.r.3.* J _ 0.e.@   t.",
"O t # G r.r.r.r.r.r.r.3.    T ;.<.e.r.e.r.r.e.q.; J / 0.e.+ @ . ",
"O r # A r.r.r.r.r.r.r.3.v E | ;.<.e.e.r.r.e.r.3., J / ,.e.+ @ . ",
"O e # Z r.r.r.r.r.r.r.3.z U | ;.<.e.e.r.r.e.e.q.3 J / ,.e.+ @ . ",
"O w # Z r.r.r.r.r.r.r.3.l I | ;.<.e.e.e.e.e.e.q.4 J / ,.e.+ @ . ",
"O w # N r.r.r.r.r.r.r.3.k U | ;.<.e.e.e.e.e.e.w.f J / ,.e.+ @ . ",
"O 9 # b r.r.r.r.r.r.e.1.j I | ;.<.q.e.q.e.w.w.8.f J ` ,.e.+ @ . ",
"O 9 # b r.r.e.e.e.w.w.$.j P | ;.<.w.w.w.w.w.w.0.f K / ,.e.+ @ . ",
"O 8 # v e.e.w.0.0.0.0.#.f P | ;.<.0.0.0.0.0.0.0.f J / ,.e.+ @ . ",
"O 6 # v w.0.0.0.0.9.9.@.f P | ;.,.0.0.0.0.0.0.0.d J ^ ,.e.+ @ . ",
"O $ # x 9.7.9.<.<.<.,.+.f L | ;.<.0.0.0.0.0.0.0.f K / ,.e.+ @ . ",
"O 6 # x 9.<.>.<.>.>.>.+.d B | ;.<.9.9.0.0.9.0.9.4 J / ,.e.+ @ . ",
"  @ s g A >.>.>.:.;.-.' 3 L | ;.<.9.9.9.9.9.&.4 d J / ,.e.+ @ . ",
"t.  @ C > N ;.-.-.+.X.' 3 L | ;.<.7.7.,.&.z d F K / / ,.e.+ @ . ",
"t.t.  @ s 2 A -.-.....) 3 L | &.<.<.,.f z F J ^ / _ ' <.e.+ @ . ",
"t.t.t.  @ u > A | | } ( 3 L | -.@._ d F H ^ ^ / ` ` [ ,.e.+ @ . ",
"t.t.t.t.  @ u : N } { ( 3 L | | k z D R Q ` @.;.:.4.,.,.e.+ @ . ",
"t.t.t.t.t.  @ u : G ~ ! 3 B | f n D Y ....+.;.;.=.<.,.,.8.+ @ . ",
"t.t.t.t.t.t.  @ e > A W 2 B f n B ~ ( H P G A A D N D N N + @ . ",
"t.t.t.t.t.t.t.  @ e = Z 3 4 n : - - : : : : : : > 1 1 1 2 + @ . ",
"t.t.t.t.t.t.t.t.  @ e > 3 h 5 8 8 8 8 8 8 8 8 8 8 8 8 8 8 8 8 . ",
"t.t.t.t.t.t.t.t.t.  8 @ @ @ 7 o                               t.",
"t.t.t.t.t.t.t.t.t.t.. . . . . t.t.t.t.t.t.t.t.t.t.t.t.t.t.t.t.t."
};
