/* XPM */
static char *connect_wprofile_icon[]={
"32 32 121 2",
"Qt c None",
".# c #000000",
".a c #040909",
".K c #090b0b",
"#w c #0c1212",
"#o c #111515",
".m c #141919",
"#m c #172020",
".b c #1a1c1c",
".S c #1c2323",
"#c c #1d384d",
".5 c #1e2828",
"#j c #1e3a50",
".W c #213a4d",
".0 c #213d53",
"#l c #222525",
"## c #222a2a",
"#t c #254056",
"#i c #274358",
".8 c #284357",
".I c #29455a",
".c c #2a2d2d",
".X c #2b3232",
".H c #2d495e",
".G c #304c60",
".e c #323535",
".6 c #33434e",
".d c #353838",
"#a c #354855",
".V c #355064",
".9 c #364b5b",
".x c #373e42",
"#F c #374141",
".y c #384349",
"#A c #393d3d",
".Z c #395365",
".P c #3b5568",
"#X c #3d4242",
".F c #3d596b",
"#Q c #3e4847",
"#e c #3e4848",
".z c #3e4b53",
"#B c #404545",
"#s c #415866",
".A c #42525b",
".7 c #425b6d",
".E c #435e70",
"#N c #444c4c",
".v c #445661",
"#. c #465151",
"#b c #466072",
"#P c #484d4d",
".D c #485e6e",
".2 c #495458",
".u c #4a5961",
".O c #4a6374",
"#E c #4b5453",
".U c #4d6778",
"#f c #4e585c",
".Y c #4e6878",
".f c #505555",
"#D c #525c5c",
".t c #525e63",
".B c #526876",
".C c #526a7b",
"#S c #556062",
".N c #586f80",
".4 c #5b6464",
".L c #5b7383",
"#z c #5d6969",
"#0 c #5f6867",
".s c #616666",
".r c #636b6b",
".M c #647a8a",
".1 c #657171",
".T c #687d8c",
"#W c #696f6f",
".q c #6b7373",
"#H c #6e7978",
".g c #707777",
"#r c #72828b",
".h c #737b7b",
"#C c #758181",
"#q c #78858a",
".R c #7a8383",
"#G c #7d8887",
"#Z c #818585",
".J c #828b8b",
"#g c #828f97",
"#2 c #84908f",
"#Y c #869090",
".i c #8a9493",
"#k c #8e99a0",
"#y c #8e9a9a",
".l c #939c9c",
"#d c #95a0a0",
"#v c #98a5a9",
"#V c #9a9f9e",
".j c #9aa4a4",
"#x c #9ca8a7",
".3 c #9da9a9",
".n c #a0a7a7",
".k c #a2abb0",
".p c #a2acac",
"#u c #a5b0b0",
"#I c #a6b0af",
"#U c #a8aeae",
".w c #aab3b3",
"#n c #aab5b9",
".Q c #aeb8b8",
".o c #b0b7b7",
"#K c #b2bbbb",
"#T c #b8bdbc",
"#J c #bbc3c3",
"#L c #c3caca",
"#O c #c8cecd",
"#M c #cbd1d1",
"#1 c #d2d6d6",
"#R c #d8dddc",
"#p c #dde2e2",
"#h c #ff0000",
"QtQtQtQtQtQtQtQtQtQtQtQtQtQtQtQtQtQtQtQtQtQtQtQtQtQtQtQtQtQtQtQt",
"QtQtQtQtQtQtQtQtQtQtQtQtQtQtQtQtQtQt.#.#.#.a.b.c.d.eQtQtQtQtQtQt",
"QtQtQtQtQtQtQtQtQtQtQtQtQt.#.#.#.#.#.e.f.g.h.i.j.k.lQtQtQtQtQtQt",
"QtQtQtQtQtQtQtQtQt.m.n.o.p.l.g.q.r.s.t.t.u.u.v.v.w.i.#QtQtQtQtQt",
"QtQtQtQtQtQtQtQtQt.c.x.y.z.A.B.C.D.E.F.F.G.G.H.I.o.J.K.#QtQtQtQt",
"QtQtQtQtQtQtQtQt.#.h.C.C.L.M.L.N.O.O.F.P.G.H.I.I.Q.R.S.KQtQtQtQt",
"QtQtQtQtQtQtQtQt.#.R.C.N.T.T.L.N.U.E.F.V.G.H.I.W.Q.h.X.KQtQtQtQt",
"QtQtQtQtQtQtQtQt.d.q.C.N.M.L.C.Y.D.E.Z.G.H.I.0.W.p.1.X.SQtQtQtQt",
"QtQtQtQtQtQtQtQt.s.2.B.C.L.C.Y.O.E.D.G.H.I.I.0.W.3.4.X.5QtQtQtQt",
"QtQtQtQtQtQtQtQt.J.6.Y.Y.O.O.7.7.P.G.H.I.8.0.0.9.j#..X##QtQtQtQt",
"QtQtQtQtQtQtQtQt.h#a.O.E.O#b.7.F.Z.H.I.I.0.0#c.D#d#e####QtQtQtQt",
"QtQtQtQtQtQtQt.##f.7.7.E.F.P.Z.G.H.I.I.I.0.0#c#g#d.X.5.5QtQtQtQt",
"QtQt#h#h#h#h#h#h#h#h#h.P.P.V.H.H.I.I.0#i#j#j#c#k#d###l#mQtQtQtQt",
"QtQt#h#h#h#h#h#h#h#h#h#h.H.H.I.I#i.0.0.0#j#j.V#n.J.5.5#oQtQtQtQt",
"QtQt#h#h#pQt.m.J#q#r#s#h#h.H.I.I#i#i.0.0#t#j.u#n#q.5#m.KQtQtQtQt",
"QtQt#h#h#pQt.X.p.w#u#u#h#h.p.p#u.p.k.3#v#k#k.k#u.1#m#w.#QtQtQtQt",
"QtQt#h#h#pQt.K.#.##o.r#h#h#x#x#v#v#v#d#d#d#y#y#y#z#m.K.#QtQtQtQt",
"QtQt#h#h#pQt#A#B.d.X#h#h#h#C#D#E.X#l.S.5#F#E.r.q#e.a#oQtQtQtQtQt",
"QtQt#h#h#h#h#h#h#h#h#h#h#G#H#D#..X.5.m#o.a.a.a.K.K.#.#.#QtQtQtQt",
"QtQt#h#h#h#h#h#h#h#h#h.i#I#u#J#K.Q.w#u#I.3#x.i#G#.#e.a.aQtQtQtQt",
"QtQt#h#h#h#h#h#h#h#h#E#E#L#L#M.Q.w#u#I.3#x#x.l.h#N.r.a.aQtQtQtQt",
"QtQt#h#h#hQt#J.h#O#O#L#L#J#L#M.Q#u#I.3#x#d#H#P#D.r#Q.a.#QtQtQtQt",
"QtQt#h#h#hQt#J#J#p#R#L#L#L#J#M.w#I.3.3#x#S.c.e.f#A.1.a.#QtQtQtQt",
"QtQt#h#h#h#T#U#U#U.n.n#g#d.w#T.p.3.3.4.S#A#B.X.s#N.4.#.#QtQtQtQt",
"QtQt#h#h#h#J.w.o#T.p#U#V.l.g.J.J.i#d.q.l#W#H.h#X.4.5.#.#QtQtQtQt",
"QtQt#h#h#h#T#R#R#O#T.l.p#U#U#Y#V#X#C#J.w#Z#0#q.h.1.#QtQtQtQtQtQt",
"QtQt#h#h#h#l#V#O#1#M#J#K.j#g#x#y#G.p.i.R.3#G#z#N#oQtQtQtQtQtQtQt",
"QtQt#h#h#hQtQtQt.a.c.j#J.o#T.s#2#T#d.J.l#d#H.r.X.#QtQtQtQtQtQtQt",
"QtQt#h#h#hQtQtQtQtQt.#.##Z#x.n.Q#K.w.i.h.h#Q.X#w.#QtQtQtQtQtQtQt",
"QtQt#h#h#hQtQtQtQtQtQtQtQtQt.#.#.h.l#T.w#H#N.#.#QtQtQtQtQtQtQtQt",
"QtQtQtQtQtQtQtQtQtQtQtQtQtQtQtQt.##l.i.Q#z.m.#QtQtQtQtQtQtQtQtQt",
"QtQtQtQtQtQtQtQtQtQtQtQtQtQtQtQtQtQtQtQt.#.#QtQtQtQtQtQtQtQtQtQt"};
