/* XPM */
static char *connect_icon[]={
"32 32 122 2",
"Qt c None",
".# c #000000",
".a c #040909",
".K c #090b0b",
"#v c #0c1212",
"#h c #111515",
".m c #141919",
"#n c #172020",
".b c #1a1c1c",
".S c #1c2323",
"#c c #1d384d",
".5 c #1e2828",
"#k c #1e3a50",
".W c #213a4d",
".0 c #213d53",
"#m c #222525",
"## c #222a2a",
"#s c #254056",
"#j c #274358",
".8 c #284357",
".I c #29455a",
".c c #2a2d2d",
".X c #2b3232",
".H c #2d495e",
".G c #304c60",
".e c #323535",
".6 c #33434e",
".d c #353838",
"#a c #354855",
".V c #355064",
".9 c #364b5b",
".x c #373e42",
"#F c #374141",
".y c #384349",
"#z c #393d3d",
".Z c #395365",
".P c #3b5568",
"#W c #3d4242",
".F c #3d596b",
"#R c #3e4847",
"#e c #3e4848",
".z c #3e4b53",
"#A c #404545",
"#r c #415866",
"#i c #424f55",
".A c #42525b",
".7 c #425b6d",
".E c #435e70",
"#B c #444c4c",
".v c #445661",
"#. c #465151",
"#b c #466072",
"#Q c #484d4d",
".D c #485e6e",
".2 c #495458",
".u c #4a5961",
".O c #4a6374",
"#E c #4b5453",
".U c #4d6778",
"#f c #4e585c",
".Y c #4e6878",
".f c #505555",
"#D c #525c5c",
".t c #525e63",
".B c #526876",
".C c #526a7b",
"#U c #556062",
".N c #586f80",
".4 c #5b6464",
".L c #5b7383",
"#y c #5d6969",
"#0 c #5f6867",
".s c #616666",
".r c #636b6b",
".M c #647a8a",
".1 c #657171",
".T c #687d8c",
"#L c #696f6f",
".q c #6b7373",
"#K c #6e7978",
".g c #707777",
"#q c #72828b",
".h c #737b7b",
"#C c #758181",
"#p c #78858a",
".R c #7a8383",
"#J c #7d8887",
"#Y c #818585",
".J c #828b8b",
"#g c #828f97",
"#3 c #84908f",
"#Z c #869090",
".i c #8a9493",
"#l c #8e99a0",
"#x c #8e9a9a",
".l c #939c9c",
"#d c #95a0a0",
"#u c #98a5a9",
"#X c #9a9f9e",
".j c #9aa4a4",
"#w c #9ca8a7",
".3 c #9da9a9",
".n c #a0a7a7",
".k c #a2abb0",
".p c #a2acac",
"#t c #a5b0b0",
"#M c #a6b0af",
"#V c #a8aeae",
".w c #aab3b3",
"#o c #aab5b9",
".Q c #aeb8b8",
".o c #b0b7b7",
"#N c #b2bbbb",
"#G c #b8bdbc",
"#I c #bbc3c3",
"#O c #c3caca",
"#H c #c8cecd",
"#P c #cbd1d1",
"#2 c #d2d6d6",
"#T c #d8dddc",
"#S c #dde2e2",
"#1 c #f0f2f2",
"QtQtQtQtQtQtQtQtQtQtQtQtQtQtQtQtQtQtQtQtQtQtQtQtQtQtQtQtQtQtQtQt",
"QtQtQtQtQtQtQtQtQtQtQtQtQtQtQtQtQtQt.#.#.#.a.b.c.d.eQtQtQtQtQtQt",
"QtQtQtQtQtQtQtQtQtQtQtQtQt.#.#.#.#.#.e.f.g.h.i.j.k.lQtQtQtQtQtQt",
"QtQtQtQtQtQtQtQtQt.m.n.o.p.l.g.q.r.s.t.t.u.u.v.v.w.i.#QtQtQtQtQt",
"QtQtQtQtQtQtQtQtQt.c.x.y.z.A.B.C.D.E.F.F.G.G.H.I.o.J.K.#QtQtQtQt",
"QtQtQtQtQtQtQtQt.#.h.C.C.L.M.L.N.O.O.F.P.G.H.I.I.Q.R.S.KQtQtQtQt",
"QtQtQtQtQtQtQtQt.#.R.C.N.T.T.L.N.U.E.F.V.G.H.I.W.Q.h.X.KQtQtQtQt",
"QtQtQtQtQtQtQtQt.d.q.C.N.M.L.C.Y.D.E.Z.G.H.I.0.W.p.1.X.SQtQtQtQt",
"QtQtQtQtQtQtQtQt.s.2.B.C.L.C.Y.O.E.D.G.H.I.I.0.W.3.4.X.5QtQtQtQt",
"QtQtQtQtQtQtQtQt.J.6.Y.Y.O.O.7.7.P.G.H.I.8.0.0.9.j#..X##QtQtQtQt",
"QtQtQtQtQtQtQtQt.h#a.O.E.O#b.7.F.Z.H.I.I.0.0#c.D#d#e####QtQtQtQt",
"QtQtQtQtQtQtQt.##f.7.7.E.F.P.Z.G.H.I.I.I.0.0#c#g#d.X.5.5QtQtQtQt",
"QtQtQtQtQtQt.##h#i.F.F.P.P.V.H.H.I.I.0#j#k#k#c#l#d###m#nQtQtQtQt",
"QtQtQtQtQtQt.#.s.9.P.Z.G.H.H.I.I#j.0.0.0#k#k.V#o.J.5.5#hQtQtQtQt",
"QtQtQtQtQtQt.m.J#p#q#r.Z.G.H.I.I#j#j.0.0#s#k.u#o#p.5#n.KQtQtQtQt",
"QtQtQtQtQtQt.X.p.w#t#t#t.k.p.p#t.p.k.3#u#l#l.k#t.1#n#v.#QtQtQtQt",
"QtQtQtQtQtQt.K.#.##h.r.1#w#w#w#u#u#u#d#d#d#x#x#x#y#n.K.#QtQtQtQt",
"QtQtQtQtQtQt#z#A.d.X.S#B.R#C#D#E.X#m.S.5#F#E.r.q#e.a#hQtQtQtQtQt",
"QtQtQtQtQtQt#G#H#I.o.3#d#J#K#D#..X.5.m#h.a.a.a.K.K.#.#.#QtQtQtQt",
"QtQtQtQtQtQt#I#L.R.h.i.i#M#t#I#N.Q.w#t#M.3#w.i#J#.#e.a.aQtQtQtQt",
"QtQtQtQtQtQt#I.q#L#B#E#E#O#O#P.Q.w#t#M.3#w#w.l.h#B.r.a.aQtQtQtQt",
"QtQtQtQtQtQt#I.h#H#H#O#O#I#O#P.Q#t#M.3#w#d#K#Q#D.r#R.a.#QtQtQtQt",
"QtQtQtQtQtQt#I#I#S#T#O#O#O#I#P.w#M.3.3#w#U.c.e.f#z.1.a.#QtQtQtQt",
"QtQtQtQt.f#G#V#V#V.n.n#g#d.w#G.p.3.3.4.S#z#A.X.s#B.4.#.#QtQtQtQt",
"QtQt.##W#H#I.w.o#G.p#V#X.l.g.J.J.i#d.q.l#L#K.h#W.4.5.#.#QtQtQtQt",
"QtQt.#.a#Y#G#T#T#H#G.l.p#V#V#Z#X#W#C#I.w#Y#0#p.h.1.#QtQtQtQtQtQt",
"QtQtQt#1.##m#X#H#2#P#I#N.j#g#w#x#J.p.i.R.3#J#y#B#hQtQtQtQtQtQtQt",
"QtQtQtQtQtQtQtQt.a.c.j#I.o#G.s#3#G#d.J.l#d#K.r.X.#QtQtQtQtQtQtQt",
"QtQtQtQtQtQtQtQtQtQt.#.##Y#w.n.Q#N.w.i.h.h#R.X#v.#QtQtQtQtQtQtQt",
"QtQtQtQtQtQtQtQtQtQtQtQtQtQt.#.#.h.l#G.w#K#B.#.#QtQtQtQtQtQtQtQt",
"QtQtQtQtQtQtQtQtQtQtQtQtQtQtQtQt.##m.i.Q#y.m.#QtQtQtQtQtQtQtQtQt",
"QtQtQtQtQtQtQtQtQtQtQtQtQtQtQtQtQtQtQtQt.#.#QtQtQtQtQtQtQtQtQtQt"};
