/* XPM */
static char *del_profile_icon[] = {
/* columns rows colors chars-per-pixel */
"32 32 85 1",
"  c #000000",
". c #0b0b0b",
"X c #001300",
"o c #140000",
"O c #131313",
"+ c #1b1b1b",
"@ c #242424",
"# c #2b2b2b",
"$ c #333333",
"% c #3b3b3b",
"& c #036908",
"* c #444444",
"= c #4c4c4c",
"- c #535353",
"; c #756f6d",
": c #0000e7",
"> c #690898",
", c #00e003",
"< c #00f1ff",
"1 c #810101",
"2 c #90002d",
"3 c #c00200",
"4 c #fe0202",
"5 c #fe5555",
"6 c #fe6e6e",
"7 c #fe7c79",
"8 c #8b8581",
"9 c #898989",
"0 c #9c9590",
"q c #b8afa8",
"w c #bab5ab",
"e c #b4b4b4",
"r c #c7a284",
"t c #c8a68a",
"y c #c9a98d",
"u c #caac92",
"i c #ccb19a",
"p c #ceb6a1",
"a c #c9beb5",
"s c #d0b9a7",
"d c #d1bdac",
"f c #f6aaa1",
"g c #faaea3",
"h c #febcbc",
"j c #d6c0af",
"k c #d2c2b3",
"l c #d4c6b9",
"z c #d5c8bd",
"x c #e7c2a2",
"c c #e8c4a6",
"v c #eac9ac",
"b c #ebcdb3",
"n c #edd0b7",
"m c #eed3bc",
"M c #c6c6c6",
"N c #c9c9c9",
"B c #d5cac2",
"V c #d9cdc5",
"C c #d7d3cc",
"Z c #d9d1ca",
"A c #d6d6d6",
"S c #dedede",
"D c #eed6c1",
"F c #e0d9d6",
"G c #e9dfd5",
"H c #f1d6c3",
"J c #f0d9c5",
"K c #f1dccb",
"L c #fad2ce",
"P c #e2e0de",
"I c #f2e2ce",
"U c #f4e2d3",
"Y c #f4e6db",
"T c #f6e9dd",
"R c #e0e0e0",
"E c #e8e7e1",
"W c #ececec",
"Q c #f7ebe1",
"! c #f1eeeb",
"~ c #f8ede5",
"^ c #f9f2ec",
"/ c #fbf6f2",
"( c #fdf9f6",
") c #fefefe",
"_ c None",
/* pixels */
"_____-=*%$#@++O..   ____________",
"_____=SSSSSSSSSSAMe  ___________",
"_____=S))))))))))WR+9 __________",
"_____=S)))))))))))W+N9 _________",
"_____*S))))))))))))@)N9 ________",
"_____*S))))))))))))$))N9 _______",
"_____%S))))))))))))*R))N9 ______",
"_____%S))))))))))))-MR))N9 _____",
"_____%S))))))))))))--*%$@   ____",
"_____$S)))))))))))))!EZw08; ____",
"_____$S))))))))))))))(WPBw0 ____",
"_____#S)))))))))))))))(!GBq ____",
"_____#S)))))))))))))((/^YGa ____",
"_____@S)))4L))))))))(g57~Tz ____",
"_____@S)))14h)))))((7541TYl ____",
"_____@S)))R146)))((7541ZYUk ____",
"_____+S))))S146)((g541VYUUk ____",
"_____+S)))))R145(f441VQQKKd ____",
"_____OS))))))R144441VYYUKKd ____",
"_____OS))))))(S1441ZTUUKJHp ____",
"_____OS)))))((!5444gUUIKHmp ____",
"_____.S))))((^541145gUKJmmp ____",
"_____.S))(((/641Zz1457JHbni ____",
"_____ S)(///641VUYl1457nbbi ____",
"_____ R(/^^h41VQUUIj145fbvu ____",
"_____ S(^^L41BUUIIJKd145vcu ____",
"_____ S^^~41VYUKKJmmmi17cxy ____",
"_____ S^~TTYUIKKJHmnnvvcxxt ____",
"_____ S~QYYUUKJJDbbbvvcxxxr ____",
"_____ CBBBlkdddspppiuuytrrr ____",
"_____                       ____",
"________________________________"
};
