/* XPM */
static char *disconnect_icon[]={
"32 32 122 2",
"Qt c None",
".# c #000000",
".a c #040909",
".R c #090b0b",
"#w c #0c1212",
"#i c #111515",
".n c #141919",
"#n c #172020",
".b c #1a1c1c",
".2 c #1c2323",
"#d c #1d384d",
".6 c #1e2828",
"#k c #1e3a50",
".W c #213a4d",
".0 c #213d53",
"#m c #222525",
"#a c #222a2a",
"#t c #254056",
"#o c #274358",
".9 c #284357",
".J c #29455a",
".c c #2a2d2d",
".X c #2b3232",
".I c #2d495e",
".H c #304c60",
".e c #323535",
".7 c #33434e",
".d c #353838",
"#b c #354855",
".V c #355064",
"#. c #364b5b",
".y c #373e42",
"#E c #374141",
".z c #384349",
"#A c #393d3d",
".Z c #395365",
".P c #3b5568",
"#U c #3d4242",
".G c #3d596b",
"#R c #3e4847",
"#f c #3e4848",
".A c #3e4b53",
"#B c #404545",
"#s c #415866",
"#j c #424f55",
".B c #42525b",
".8 c #425b6d",
".F c #435e70",
"#C c #444c4c",
".w c #445661",
"## c #465151",
"#c c #466072",
"#Q c #484d4d",
".E c #485e6e",
".3 c #495458",
".v c #4a5961",
".O c #4a6374",
"#D c #4b5453",
".U c #4d6778",
"#g c #4e585c",
".Y c #4e6878",
".g c #505555",
"#I c #525c5c",
".u c #525e63",
".C c #526876",
".D c #526a7b",
"#S c #556062",
".N c #586f80",
".5 c #5b6464",
".L c #5b7383",
"#z c #5d6969",
"#0 c #5f6867",
".t c #616666",
".s c #636b6b",
".M c #647a8a",
".1 c #657171",
".T c #687d8c",
"#J c #696f6f",
".r c #6b7373",
"#P c #6e7978",
".h c #707777",
"#r c #72828b",
".i c #737b7b",
"#Z c #758181",
"#q c #78858a",
".S c #7a8383",
"#M c #7d8887",
"#W c #818585",
".K c #828b8b",
"#h c #828f97",
"#3 c #84908f",
"#Y c #869090",
".j c #8a9493",
"#l c #8e99a0",
"#y c #8e9a9a",
".m c #939c9c",
"#e c #95a0a0",
"#v c #98a5a9",
"#V c #9a9f9e",
".k c #9aa4a4",
"#x c #9ca8a7",
".4 c #9da9a9",
".o c #a0a7a7",
".l c #a2abb0",
".q c #a2acac",
"#u c #a5b0b0",
"#L c #a6b0af",
"#T c #a8aeae",
".x c #aab3b3",
"#p c #aab5b9",
".Q c #aeb8b8",
".p c #b0b7b7",
"#K c #b2bbbb",
"#F c #b8bdbc",
"#H c #bbc3c3",
"#N c #c3caca",
"#G c #c8cecd",
"#O c #cbd1d1",
"#2 c #d2d6d6",
"#X c #d8dddc",
"#1 c #f0f2f2",
".f c #ff0000",
"QtQtQtQtQtQtQtQtQtQtQtQtQtQtQtQtQtQtQtQtQtQtQtQtQtQtQtQtQtQtQtQt",
"QtQtQtQtQtQtQtQtQtQtQtQtQtQtQtQtQtQt.#.#.#.a.b.c.d.eQtQtQt.fQtQt",
"QtQtQtQtQtQtQtQtQtQtQtQtQt.#.#.#.#.#.e.g.h.i.j.k.l.mQtQt.f.fQtQt",
"QtQtQtQtQtQtQtQtQt.n.o.p.q.m.h.r.s.t.u.u.v.v.w.w.x.j.#.f.fQtQtQt",
"QtQtQtQtQtQtQtQtQt.c.y.z.A.B.C.D.E.F.G.G.H.H.I.J.p.K.f.fQtQtQtQt",
"QtQtQtQtQtQtQtQt.#.i.D.D.L.M.L.N.O.O.G.P.H.I.J.J.Q.f.f.RQtQtQtQt",
"QtQtQtQtQtQtQtQt.#.S.D.N.T.T.L.N.U.F.G.V.H.I.J.W.f.f.X.RQtQtQtQt",
"QtQtQtQtQtQtQtQt.d.r.D.N.M.L.D.Y.E.F.Z.H.I.J.0.f.f.1.X.2QtQtQtQt",
"QtQtQtQtQtQtQtQt.t.3.C.D.L.D.Y.O.F.E.H.I.J.J.f.f.4.5.X.6QtQtQtQt",
"QtQtQtQtQtQtQtQt.K.7.Y.Y.O.O.8.8.P.H.I.J.9.f.f#..k##.X#aQtQtQtQt",
"QtQtQtQtQtQtQtQt.i#b.O.F.O#c.8.G.Z.I.J.J.f.f#d.E#e#f#a#aQtQtQtQt",
"QtQtQtQtQtQtQt.##g.8.8.F.G.P.Z.H.I.J.J.f.f.0#d#h#e.X.6.6QtQtQtQt",
"QtQtQtQtQtQt.##i#j.G.G.P.P.V.I.I.J.J.f.f#k#k#d#l#e#a#m#nQtQtQtQt",
"QtQtQtQtQtQt.#.t#..P.Z.H.I.I.J.J#o.f.f.0#k#k.V#p.K.6.6#iQtQtQtQt",
"QtQtQtQtQtQt.n.K#q#r#s.Z.H.I.J.J.f.f.0.0#t#k.v#p#q.6#n.RQtQtQtQt",
"QtQtQtQtQtQt.X.q.x#u#u#u.l.q.q.f.f.l.4#v#l#l.l#u.1#n#w.#QtQtQtQt",
"QtQtQtQtQtQt.R.#.##i.s.1#x#x.f.f#v#v#e#e#e#y#y#y#z#n.R.#QtQtQtQt",
"QtQtQtQtQtQt#A#B.d.X.2#C.S.f.f#D.X#m.2.6#E#D.s.r#f.a#iQtQtQtQtQt",
"QtQtQtQtQtQt#F#G#H.p.4#e.f.f#I##.X.6.n#i.a.a.a.R.R.#.#.#QtQtQtQt",
"QtQtQtQtQtQt#H#J.S.i.j.f.f#u#H#K.Q.x#u#L.4#x.j#M###f.a.aQtQtQtQt",
"QtQtQtQtQtQt#H.r#J#C.f.f#N#N#O.Q.x#u#L.4#x#x.m.i#C.s.a.aQtQtQtQt",
"QtQtQtQtQtQt#H.i#G.f.f#N#H#N#O.Q#u#L.4#x#e#P#Q#I.s#R.a.#QtQtQtQt",
"QtQtQtQtQtQt#H#H.f.f#N#N#N#H#O.x#L.4.4#x#S.c.e.g#A.1.a.#QtQtQtQt",
"QtQtQtQt.g#F#T.f.f.o.o#h#e.x#F.q.4.4.5.2#A#B.X.t#C.5.#.#QtQtQtQt",
"QtQt.##U#G#H.f.f#F.q#T#V.m.h.K.K.j#e.r.m#J#P.i#U.5.6.#.#QtQtQtQt",
"QtQt.#.a#W.f.f#X#G#F.m.q#T#T#Y#V#U#Z#H.x#W#0#q.i.1.#QtQtQtQtQtQt",
"QtQtQt#1.f.f#V#G#2#O#H#K.k#h#x#y#M.q.j.S.4#M#z#C#iQtQtQtQtQtQtQt",
"QtQtQt.f.fQtQtQt.a.c.k#H.p#F.t#3#F#e.K.m#e#P.s.X.#QtQtQtQtQtQtQt",
"QtQt.f.fQtQtQtQtQtQt.#.##W#x.o.Q#K.x.j.i.i#R.X#w.#QtQtQtQtQtQtQt",
"Qt.f.fQtQtQtQtQtQtQtQtQtQtQt.#.#.i.m#F.x#P#C.#.#QtQtQtQtQtQtQtQt",
"QtQtQtQtQtQtQtQtQtQtQtQtQtQtQtQt.##m.j.Q#z.n.#QtQtQtQtQtQtQtQtQt",
"QtQtQtQtQtQtQtQtQtQtQtQtQtQtQtQtQtQtQtQt.#.#QtQtQtQtQtQtQtQtQtQt"};
