/* XPM */
static char *exit_icon[]={
"32 32 231 2",
"Qt c None",
".# c #a62212",
"bI c #a92b17",
"#e c #ac3420",
".v c #ae3622",
"bK c #b03a21",
"bE c #b03b22",
".a c #b03b2a",
"bu c #b34529",
"bo c #b4482a",
"bj c #b54a2b",
"bc c #b54c2d",
"a8 c #b64e2e",
"bH c #b84f2d",
"a0 c #b85030",
"aS c #b85231",
"aJ c #b95432",
".P c #b95530",
"aB c #b95535",
"#q c #b9573a",
"bJ c #ba5534",
".Q c #ba5632",
"au c #ba5736",
".R c #ba5834",
"an c #ba5938",
".S c #bb5a36",
"## c #bb5a3f",
"ae c #bb5c3a",
".T c #bb5d37",
"#8 c #bb5d3b",
".M c #bb5d40",
".U c #bc5f39",
"#1 c #bc5f3e",
".u c #bc5f43",
"#U c #bc6040",
".V c #bd603a",
".W c #bd623b",
"#K c #bd6241",
"#B c #bd6443",
"bD c #be6241",
".X c #be633e",
".Y c #be653f",
"#x c #be6745",
".Z c #bf6740",
".O c #c06848",
".0 c #c06942",
".1 c #c06b44",
".2 c #c26d45",
".3 c #c26e48",
".4 c #c27149",
".b c #c36d57",
".w c #c36e58",
".5 c #c4734b",
".6 c #c4744d",
".t c #c47455",
".7 c #c4754e",
".s c #c47556",
"bt c #c57353",
".r c #c57657",
".8 c #c57750",
".q c #c57759",
"#a c #c57952",
"#N c #c67652",
".p c #c6785a",
".o c #c6795c",
"#b c #c67c54",
"ag c #c77853",
"#m c #c77b56",
".n c #c77b5d",
".m c #c77c5f",
"#n c #c77d56",
"bF c #c77e56",
".9 c #c77e57",
"ad c #c77e58",
"#o c #c77f58",
"am c #c77f59",
"#J c #c78058",
"aC c #c87d58",
".l c #c87d60",
"aA c #c87e59",
"aI c #c87e5a",
".B c #c87e5d",
".A c #c87e5e",
".k c #c87e61",
"#c c #c87f58",
"at c #c87f59",
"aR c #c87f5a",
"aZ c #c87f5c",
".D c #c87f5d",
".C c #c87f5e",
"#w c #c88059",
".F c #c8805c",
"#p c #c8815a",
".I c #c8815c",
"#A c #c8825c",
"#d c #c8835d",
"#f c #c97b58",
"bn c #c97e5e",
".E c #c97f5d",
".j c #c97f63",
".i c #c97f64",
"#v c #c9805a",
".G c #c9805c",
".H c #c9815c",
".h c #c98165",
"#I c #c9855e",
".J c #c9855f",
".g c #ca8168",
".f c #ca8269",
".e c #ca836a",
"#T c #ca8760",
"#. c #ca8861",
"#7 c #ca8963",
".d c #cc856c",
"#Y c #cc8660",
".c c #cc866d",
".K c #cc8962",
".L c #cc8b65",
".z c #cd8869",
"#S c #cd8a65",
"al c #cd8d69",
"#r c #ce8364",
"as c #ce916c",
"#X c #cf8a68",
"#Q c #cf8b69",
"#6 c #cf906b",
"az c #cf936f",
"a4 c #d19471",
"bG c #d19478",
"aH c #d19573",
"#E c #d28d6d",
".y c #d2977b",
"aQ c #d29976",
"#P c #d39172",
"be c #d39675",
"aY c #d39b79",
"#L c #d48f73",
"#2 c #d49174",
"#z c #d49777",
"a7 c #d49d7d",
"aW c #d59d7c",
"aX c #d59e7d",
"bb c #d59f80",
"bi c #d5a183",
"#H c #d79b7b",
"#5 c #d79c7c",
"ba c #d7a080",
"bm c #d7a487",
".N c #d7a488",
"#O c #d89a7d",
"bs c #d8a78b",
"#F c #d99c7f",
"a9 c #d99e81",
"a3 c #d9a182",
"bf c #d9a485",
".x c #d9a98d",
"bC c #d9a98f",
"#4 c #daa082",
"aa c #daa183",
"bB c #daa688",
"ai c #dba286",
"ap c #dba587",
"aw c #dba588",
"br c #dba88b",
"bp c #dca789",
"aE c #dca78a",
"aN c #dca88b",
"aT c #dda58a",
"aV c #dda98c",
"aq c #ddaa8d",
"ax c #deab8f",
"#y c #dfa68d",
"bh c #dfb195",
"a. c #e2ac94",
"#l c #e2af95",
"#W c #e2af96",
"aj c #e2b297",
"b# c #e2b399",
"ac c #e3b59b",
"aF c #e3b59c",
"aL c #e4b29a",
"bl c #e4b99f",
"#g c #e5b39e",
"bd c #e6baa2",
"aP c #e6bda5",
"a2 c #ebc3ac",
"#D c #edc2af",
"#3 c #eec5b1",
"a# c #eec6b2",
"ah c #eec6b3",
"ao c #eec7b4",
"av c #efc8b5",
"aD c #efc9b5",
"aM c #efcab6",
"bA c #efceba",
"bk c #f0cab8",
"aU c #f0ccb8",
"#0 c #f0ceba",
"#9 c #f1c9b9",
"bv c #f1d0bd",
"ak c #f1d1be",
"#k c #f2cdbc",
"bg c #f2d1be",
"ar c #f2d2bf",
"ay c #f2d3c0",
"aG c #f3d4c3",
"b. c #f5d4c3",
"#h c #f7d5c7",
"#M c #f7d7c8",
"aK c #f8d9c9",
"#u c #f9dacc",
"#G c #f9dbcc",
"a1 c #f9dcce",
"ab c #fadfd1",
"aO c #fbe3d4",
"a6 c #fde7da",
"#s c #ffebe2",
"af c #ffece2",
"#i c #ffece3",
"#j c #ffede3",
"bz c #ffeee3",
"bq c #fff2e9",
"bw c #fff5eb",
"bx c #fff6ec",
"by c #fff6ed",
"#V c #fff6ef",
"#R c #fffaf3",
"#Z c #fffbf3",
"a5 c #fffdf7",
"#C c #fffffd",
"#t c #ffffff",
"QtQtQtQtQtQtQtQtQtQtQtQtQtQtQtQtQtQtQtQtQtQtQtQtQtQtQtQtQtQtQtQt",
"QtQtQtQtQt.#.#.#.#.#.#.#.#.#.#.#.#.#.#.#.#.#.#.#.#.#.#QtQtQtQtQt",
"QtQtQt.#.#.a.b.c.d.e.f.g.h.i.j.k.l.m.n.o.p.q.r.s.t.u.v.#.#QtQtQt",
"QtQt.#.#.w.x.y.z.A.B.C.D.E.E.E.E.F.F.G.G.H.I.I.I.J.K.L.M.#.#QtQt",
"QtQt.#.w.N.O.P.Q.R.S.T.U.V.W.X.Y.Z.0.1.2.3.4.5.6.7.8.9#.##.#QtQt",
"Qt.#.a.x.O.P.Q.R.S.T.U.V.W.X.Y.Z.0.1.2.3.4.5.6.7.8#a#b#c#d#e.#Qt",
"Qt.#.b.y.P.Q.R.S.T.U.V.W#f#g#h#i#j#k#l#m.5.6.7.8#a#b#n#o#p#q.#Qt",
"Qt.#.c.z.Q.R.S.T.U.V#r#s#t#t#t#t#t#t#t#t#u#v.8#a#b#n#o#w#w#x.#Qt",
"Qt.#.d.A.R.S.T.U.V#y#t#t#t#t#t#t#t#t#t#t#t#t#z#b#n#o#w#A#w#B.#Qt",
"Qt.#.e.B.S.T.U.V#y#t#t#t#C#D#E.3.4#F#G#t#t#t#t#H#o#w#A#I#J#K.#Qt",
"Qt.#.f.C.T.U.V#L#t#t#t#M#N.2.3#O#P.6.7#Q#R#t#t#t#S#A#I#T#o#U.#Qt",
"Qt.#.g.D.U.V.W#V#t#t#M.1.2.3#W#t#t#X.8#a#Y#Z#t#t#0#I#T#.#o#1.#Qt",
"Qt.#.h.E.V.W#2#t#t#C.1.2.3.4#3#t#t#4#a#b#n#5#t#t#t#6#.#7#o#8.#Qt",
"Qt.#.i.E.W.X#9#t#ta..2.3.4.5a##t#taa#b#n#o#wab#t#tac#7.Ladae.#Qt",
"Qt.#.j.E.X.Yaf#t#tag.3.4.5.6ah#t#tai#n#o#w#Aaj#t#tak.Lalaman.#Qt",
"Qt.#.k.E.Y.Z#t#t#t.3.4.5.6.7ao#t#tap#o#w#A#Iaq#t#taralasatau.#Qt",
"Qt.#.l.F.Z.0#t#t#t.4.5.6.7.8av#t#taw#w#A#I#Tax#t#tayasazaAaB.#Qt",
"Qt.#.m.F.0.1#j#t#taC.6.7.8#aaD#t#taE#A#I#T#.aF#t#taGazaHaIaJ.#Qt",
"Qt.#.n.G.1.2aK#t#taL.7.8#a#baM#t#taN#I#T#.#7aO#t#taPaHaQaRaS.#Qt",
"Qt.#.o.G.2.3aT#t#t#t.8#a#b#naU#t#taV#T#.#7aW#t#t#taXaQaYaZa0.#Qt",
"Qt.#.p.H.3.4.5#t#t#ta1#b#n#oa2#t#ta3#.#7a4a5#t#ta6aQaYa7aZa8.#Qt",
"Qt.#.q.I.4.5.6a9#t#t#tb.#o#w#Ab#a3#.#7a4a5#t#t#tbaaYa7bb.Bbc.#Qt",
"Qt.#.r.I.5.6.7.8av#t#t#t#tbdbe#T#.bfbg#t#t#t#tbhaYa7bbbi.Bbj.#Qt",
"Qt.#.s.I.6.7.8#a#bbk#t#t#t#t#t#t#t#t#t#t#t#tblaYa7bbbibmbnbo.#Qt",
"Qt.#.t.J.7.8#a#b#n#obpbq#t#t#t#t#t#t#t#ta6braYa7bbbibmbsbtbu.#Qt",
"Qt.#.u.K.8#a#b#n#o#w#A#Ia3bvbwbxbybzbAbBaQaYa7bbbibmbsbCbDbE.#Qt",
"Qt.#.v.LbF#b#n#o#w#A#I#T#.#7.LalasazaHaQaYa7bbbibmbsbCbGbHbI.#Qt",
"QtQt.#.M#.#c#o#w#A#I#T#.#7.LalasazaHaQaYa7bbbibmbsbCbGbJbK.#QtQt",
"QtQt.#.####d#p#w#w#J#o#o#oadamataAaIaRaZaZ.B.BbnbtbDbHbK.#.#QtQt",
"QtQtQt.#.##e#q#x#B#K#U#1#8aeanauaBaJaSa0a8bcbjbobubEbI.#.#QtQtQt",
"QtQtQtQtQt.#.#.#.#.#.#.#.#.#.#.#.#.#.#.#.#.#.#.#.#.#.#QtQtQtQtQt",
"QtQtQtQtQtQtQtQtQtQtQtQtQtQtQtQtQtQtQtQtQtQtQtQtQtQtQtQtQtQtQtQt"};
