/* XPM */
static char *log_icon[] = {
/* columns rows colors chars-per-pixel */
"34 34 246 2",
"   c #000000",
".  c #0d0703",
"X  c #0a0a06",
"o  c #120502",
"O  c #100801",
"+  c #180a01",
"@  c #151513",
"#  c #1f1a17",
"$  c #210f01",
"%  c #211001",
"&  c #21100e",
"*  c #26251f",
"=  c #2d251b",
"-  c #2e2a1e",
";  c #332a1d",
":  c #2a2622",
">  c #2e2a24",
",  c #2e2e2e",
"<  c #322a22",
"1  c #322e2a",
"2  c #382f24",
"3  c #333333",
"4  c #3d3d3d",
"5  c #443e37",
"6  c #443e3a",
"7  c #7f3903",
"8  c #7d3d15",
"9  c #494534",
"0  c #4f4a37",
"q  c #5b4728",
"w  c #5d4a36",
"e  c #644533",
"r  c #624f30",
"t  c #6e4c36",
"y  c #734629",
"u  c #764e2a",
"i  c #7b5128",
"p  c #444444",
"a  c #4b4b4b",
"s  c #535353",
"d  c #5c5957",
"f  c #595959",
"g  c #675242",
"h  c #7b5848",
"j  c #636363",
"k  c #6b6b6b",
"l  c #747474",
"z  c #797674",
"x  c #7c7875",
"c  c #7c7c7c",
"v  c #813a04",
"b  c #843c1c",
"n  c #8c4004",
"m  c #944504",
"M  c #94511c",
"N  c #804f2f",
"B  c #834f31",
"V  c #83542f",
"C  c #835829",
"Z  c #885a2f",
"A  c #805430",
"S  c #965534",
"D  c #9c5630",
"F  c #a44b04",
"G  c #a24d0f",
"H  c #a84e03",
"J  c #a6550d",
"K  c #aa5004",
"L  c #b75604",
"P  c #b95600",
"I  c #b85804",
"U  c #a35e28",
"Y  c #a15e3a",
"T  c #ab6539",
"R  c #af723a",
"E  c #bb602e",
"W  c #805a42",
"Q  c #807255",
"!  c #c35f04",
"~  c #c76227",
"^  c #e77604",
"/  c #eb7903",
"(  c #f17b03",
")  c #f1780a",
"_  c #fd7e00",
"`  c #ff7b16",
"'  c #e76d24",
"]  c #e56430",
"[  c #e17631",
"{  c #f3712f",
"}  c #c67e5c",
"|  c #e07950",
" . c #87837e",
".. c #968c7c",
"X. c #b8824c",
"o. c #b48e6c",
"O. c #bc9c6d",
"+. c #b79f7c",
"@. c #bd9e73",
"#. c #bea27a",
"$. c #f78403",
"%. c #fd8401",
"&. c #fe8b02",
"*. c #ff8d17",
"=. c #ff9001",
"-. c #fd9524",
";. c #fd932e",
":. c #fd982e",
">. c #fea332",
",. c #ffa13a",
"<. c #c7825b",
"1. c #c18064",
"2. c #cc8062",
"3. c #d18260",
"4. c #dc946e",
"5. c #db9770",
"6. c #e5884c",
"7. c #e29558",
"8. c #ea9d53",
"9. c #e49c7d",
"0. c #eb9e77",
"q. c #fda141",
"w. c #fcab7f",
"e. c #fcb269",
"r. c #f7bb7a",
"t. c #fdb47e",
"y. c #fdbe7a",
"u. c #868686",
"i. c #898a8a",
"p. c #968f85",
"a. c #969087",
"s. c #98958f",
"d. c #969696",
"f. c #9d9c9b",
"g. c #a09584",
"h. c #a29b8d",
"j. c #a89b86",
"k. c #a49e96",
"l. c #a5a196",
"z. c #a8a39e",
"x. c #b1a48e",
"c. c #bda481",
"v. c #bea88a",
"b. c #b4a692",
"n. c #b5a995",
"m. c #b2a99c",
"M. c #bcab92",
"N. c #acacac",
"B. c #b5b0a7",
"V. c #b8b3ab",
"C. c #b5b4b3",
"Z. c #bab6b2",
"A. c #bcbab3",
"S. c #bababa",
"D. c #c0a583",
"F. c #c0a985",
"G. c #c1aa8d",
"H. c #c2ad91",
"J. c #c3b296",
"K. c #c4b49c",
"L. c #c5b7a0",
"P. c #c6b8a3",
"I. c #c6baaa",
"U. c #ccbda9",
"Y. c #c7bfb4",
"T. c #d0bea4",
"R. c #eaa282",
"E. c #f3ac83",
"W. c #f1ad8c",
"Q. c #f2af97",
"!. c #fab28f",
"~. c #fbb390",
"^. c #f9b99a",
"/. c #c6c2b6",
"(. c #c9c1b6",
"). c #d3c1a4",
"_. c #d5c5ac",
"`. c #decbac",
"'. c #d9ccbc",
"]. c #e2c69e",
"[. c #fecd9f",
"{. c #fdd49c",
"}. c #e2c9a3",
"|. c #e5cdaa",
" X c #efc1ae",
".X c #e5d1b2",
"XX c #e5d5bd",
"oX c #e8d4b5",
"OX c #e9d6b9",
"+X c #e9d8bd",
"@X c #ffc0a0",
"#X c #ffc9ad",
"$X c #ffc9b0",
"%X c #f6ddae",
"&X c #ffd1a9",
"*X c #f7deb0",
"=X c #fed5b4",
"-X c #f8d1be",
";X c #fddcb1",
":X c #fadcbb",
">X c #f6eab7",
",X c #f9efbc",
"<X c #c4c4c4",
"1X c #cac7c2",
"2X c #cdc9c0",
"3X c #c9c9c9",
"4X c #d2ccc0",
"5X c #d0cfca",
"6X c #d4d2cd",
"7X c #dcd4c7",
"8X c #dcd5cc",
"9X c #dfdace",
"0X c #d5d5d5",
"qX c #dbdad9",
"wX c #e5dac4",
"eX c #e5dbca",
"rX c #ebdbc3",
"tX c #eaddca",
"yX c #e0dbd3",
"uX c #e4dfd9",
"iX c #eee0cb",
"pX c #ebe2d3",
"aX c #ece4da",
"sX c #eeeade",
"dX c #f0e2ce",
"fX c #fee1cb",
"gX c #ffeace",
"hX c #f0e5d3",
"jX c #f2e8d7",
"kX c #f2e9dc",
"lX c #ffeed8",
"zX c #fffecc",
"xX c #fff6dd",
"cX c #fffbdf",
"vX c #e3e3e2",
"bX c #eeebe4",
"nX c #f3ede3",
"mX c #f2eeea",
"MX c #f6f0e7",
"NX c #f6f1e9",
"BX c #f8f3eb",
"VX c #f4f4f4",
"CX c #f9f5f0",
"ZX c #fcfaf5",
"AX c #fefefe",
"SX c None",
/* pixels */
"SXSXSXSXSXSXSXSXu.c z l k j j j j f a a a 4 ,       SXSXSXSXSXSXSXSX",
"SXSXSXSXSXSXSXSXl 3X3X3X3X3X3X3X3X3XS.S.N.f.f.p       SXSXSXSXSXSXSX",
"zXe.8.u SXSXSXSXz 3XAXAXAXAXAXAXAXAXAXAXVXvXqXp i.      SXSXSXSXSXSX",
">.,Xe.8.u     SXl 3XAXAXAXAXAXAXAXAXAXAXAXVXvXa 3Xi.      SXSXSXSXSX",
"&.>.>Xe.8.u     k 3XAXAXAXAXAXAXAXAXAXAXAXAXVXa AX3Xi.      SXSXSXSX",
"%.%.,.%Xe.8.A   k 3XAXAXAXAXAXAXAXAXAXAXAXAXAXf AXAX3Xi.      SXSXSX",
"%.%._ ,.>Xe.8.i k <XAXAXAXAXAXAXAXAXAXAXAXAXAXf vXAXAX3Xi.      SXSX",
"=.%.%.%.:.=Xe.8.Z S.AXAXAXAXAXAXAXAXAXAXAXAXAXj 3XqXAXAX3Xi.      SX",
"%.&.%.%._ q.:Xe.8.Z VXAXAXAXAXAXAXAXAXAXAXAXAXk a a a p 4 4 3       ",
"! ( &.%.%._ :.[.e.8.R VXAXAXAXAXAXAXAXAXAXAXAXZXqX0XA.l. .l d       ",
"K ! / &.%.%._ ;.{.e.8.U VXAXAXAXAXAXAXAXAXAXAXAXZXvXqX3XV.l.x       ",
"7 K I / &.%.%._ -.r.t.8.X.VXAXAXAXAXAXAXAXAXAXZXAXmXvXqX4XV.p.      ",
"  v F I ^ &.&.%.%.*.E.E.y.7.VXAXAXAXAXAXAXAXAXZXNXBXbXuX8X4Xl.      ",
"  % n H I / &.&.%._ 6. XcX:X~.VXAXAXAXAXAXAXZXCXmXmXnXaXyX9Xm.      ",
"    O n F I / =.%.$.[ Q.fXBX&XqXVXAXAXAXZXZXBXBXBXbXnXaXpXeXn.      ",
"      % 7 F I / ` ) [ E.^.xXZX~.vXAXAXZXZXCXCXMXmXaXkXaXyXeXn.      ",
"        + m H P ' { ] | W.:XMX&X0XVXZXZXBXBXBXMXkXkXpXaXpXeXM.      ",
"SX        . 8 G J E ~ 1.4.^.&XZX~.vXCXVXBXMXMXkXkXjXpXiXiXwXM.      ",
"SXSX        & b r y M T <.0.#XgX&X5XbXBXBXMXMXkXjXjXdXiXtXrXM.      ",
"SXSXSX        o 6 w q A Y 2.9.#XxX!.qXnXMXkXjXjXjXdXdX+XrX+XM.      ",
"SXSXSXSX        @ 6 9 w B D } 0.-X&X2XaXkXkXjXdXdXtXtX+XXXXXv.      ",
"SXSXSXSXSX      p c   : g B S 2.R.fX~.7XjXjXdXdXiXiXrX+X.X.Xv.      ",
"SXSXSXSXSXSX    s d.N.i.  6 e W <.5.o.(.tXpXhXtXiX+XXXOXoXoXc.      ",
"SXSXSXSXSXSXSX  f C.0XC.f.i.@ 2 h t ; Q '.tXtXrX>XOXoXoXoXoXc.      ",
"SXSXSXSXSXSXSXSXf <XmX5XZ.z.s.i.  = # 9 +.wXrXrX+X+XoX|.|.|.#.;     ",
"SXSXSXSXSXSXSXSXf 3XZXbXyX1XB.k.a.i.    , I..X+XOX.X.X|.|.|.+.;     ",
"SXSXSXSXSXSXSXSXf 3XBXmXkXaX7XY.m.h...i.0 x._..X.X.X|.|.}.].#.=     ",
"SXSXSXSXSXSXSXSXf 3XBXnXnXkXpXtX'.U.b.p...j.T..X.X|.|.].}.).5.=     ",
"SXSXSXSXSXSXSXSXs 3XBXnXkXjXpXpXtXXX_.L.x.b.).|.|.|.].].}.].O.-     ",
"SXSXSXSXSXSXSXSXa 3XmXkXkXjXdXiXpXtXwX.X_.T.}.|.|.}.].].].].O.-     ",
"SXSXSXSXSXSXSXSX4 (.Y.Y.I.I.P.L.K.K.H.H.G.G.F.c.#.#.#.#.O.O.O.=     ",
"SXSXSXSXSXSXSXSX@ < 1 < 1 > < 1 > > > > - < - - - : - - = - = X     ",
"SXSXSXSXSXSXSXSX                                                    ",
"SXSXSXSXSXSXSXSX                                                    "
};
