/* XPM */
static char *meter_icon[]={
"34 34 128 2",
"Qt c None",
".i c #000000",
"#9 c #0a0a06",
".J c #161612",
"#8 c #2a2622",
"#Q c #2e261b",
"#J c #2e2a1e",
"#. c #2e2a24",
"#7 c #2e2e2e",
"#E c #322a1e",
"#c c #322a22",
"#6 c #322e2a",
".h c #333333",
".g c #3c3c3c",
".f c #444444",
".w c #4b4b4b",
".e c #515151",
"#h c #563e44",
".z c #5b5b5b",
".d c #5c5957",
".c c #636363",
".b c #6c6c6c",
".a c #747474",
".F c #7c5a5c",
".p c #7c7875",
"#z c #7e7264",
"#l c #808080",
"#w c #817a6f",
"#A c #827c71",
".# c #828282",
"#m c #86523c",
"#r c #868076",
".u c #898989",
"#F c #8a8173",
"#K c #8c867b",
".N c #927e7c",
".I c #929292",
"#G c #948a7a",
".R c #958e82",
".G c #976156",
"#n c #9d9384",
".o c #9d9d9d",
"#x c #a19583",
"#R c #a1998d",
"## c #a29c91",
"#k c #a2aaac",
"#B c #a49886",
".M c #a5a196",
".H c #a5a5a5",
".A c #a6625c",
".P c #a6a199",
"#L c #aa9d8c",
".W c #aca393",
".n c #acacac",
"#e c #ada598",
".4 c #b0aba4",
".Z c #b2a89b",
".D c #b3b3b3",
".3 c #b6a995",
"#S c #b8ac9a",
".O c #b8b3ab",
"#Y c #bc9c6d",
".9 c #bcab92",
".L c #bcbab3",
".m c #bcbcbc",
"#T c #bd9e73",
"#u c #bda481",
"#D c #bea27a",
"#g c #bea98a",
"#5 c #c0a583",
"#4 c #c1aa86",
".l c #c1c2be",
"#v c #c27a54",
"#1 c #c2b195",
"#M c #c2b39b",
"#3 c #c3ac8d",
"#2 c #c3ae92",
"#o c #c3b6a2",
".0 c #c3bdb5",
".E c #c3c3c3",
"#0 c #c4b9a9",
"#Z c #c6c1b6",
"#y c #c7b8a0",
"#U c #c8bcac",
".k c #c8c7c5",
".j c #c9c9c9",
"#a c #cac1b3",
".7 c #ccc6b9",
"#N c #cebda4",
"#f c #d0c5b4",
".K c #d1d1ce",
"#H c #d2c3ac",
".Q c #d2ccc1",
".X c #d2cec9",
".B c #d2d2d2",
".V c #dbd7ce",
"#O c #dcc9ac",
"#i c #dcccb4",
".t c #dcdcdb",
"#s c #dfd0ba",
".2 c #dfd9cb",
"#P c #e2c69e",
"#I c #e2c9a3",
".v c #e2dedb",
"#V c #e3cfb3",
"#X c #e3d6c4",
".8 c #e3dacb",
".Y c #e3ddd3",
".s c #e3e3e3",
"#C c #e4cdab",
"#t c #e5d1b2",
"#b c #e5d9c4",
"#j c #e6d5bb",
"#q c #e8d4b5",
"#p c #e8d6ba",
"#d c #e9dac3",
".1 c #e9e1d3",
".5 c #eadecc",
".U c #eae4db",
".C c #ebebeb",
".T c #ede9e2",
"#W c #eee6e4",
".S c #f0ede9",
".y c #f0f0ef",
".r c #f3f4f3",
".6 c #fbf6ed",
".q c #fdfdfd",
".x c #ffffff",
"QtQtQtQtQtQtQtQt.#.#.a.b.b.c.c.c.c.d.e.f.f.g.h.i.i.iQtQtQtQtQtQtQtQt",
"QtQtQtQtQtQtQtQt.a.j.j.j.j.j.j.j.k.j.l.m.n.o.o.f.i.i.iQtQtQtQtQtQtQt",
"QtQtQtQtQtQtQtQt.p.j.q.q.q.q.q.q.q.q.q.q.r.s.t.f.u.i.i.iQtQtQtQtQtQt",
"QtQtQtQtQtQtQtQt.a.j.q.q.q.q.q.q.q.q.q.q.q.r.v.e.j.u.i.i.iQtQtQtQtQt",
"QtQtQtQtQtQtQtQt.b.j.q.q.q.q.q.q.q.q.q.q.q.q.r.w.q.j.u.i.i.iQtQtQtQt",
"QtQtQtQtQtQtQtQt.b.j.q.q.q.q.q.x.x.q.r.q.q.q.q.e.q.q.j.u.i.i.iQtQtQt",
"QtQtQtQtQtQtQtQt.b.j.q.q.q.q.x.x.x.x.v.y.q.q.q.z.v.q.q.j.u.i.i.iQtQt",
"QtQtQtQtQtQtQtQt.b.j.q.q.q.q.x.x.x.A.m.B.C.r.q.c.j.v.q.q.j.u.i.i.iQt",
"QtQtQtQtQtQtQtQt.b.k.q.C.D.E.x.F.x.x.D.G.t.r.q.b.e.w.f.f.g.g.h.i.i.i",
"QtQtQtQtQtQtQtQt.b.m.q.C.H.E.x.x.x.I.E.J.G.C.r.r.t.K.L.M.#.p.d.i.i.i",
"QtQtQtQtQtQtQt.i.r.#.E.q.j.x.x.x.N.q.J.J.n.G.y.q.r.s.t.k.O.P.p.i.i.i",
"QtQtQtQtQtQt.C.D.q.t.j.r.r.x.x.x.s.J.J.a.I.m.G.s.r.y.s.t.Q.O.R.i.i.i",
"QtQtQtQtQt.i.C.#.t.q.q.q.x.x.x.x.J.J.C.s.r.t.G.j.v.S.T.U.V.Q.W.i.i.i",
"QtQtQtQtQt.q.r.m.B.r.r.x.x.x.x.J.J.C.s.t.E.I.j.G.X.s.T.U.Y.V.Z.i.i.i",
"QtQtQtQt.s.k.C.q.r.C.x.x.x.x.J.J.x.C.C.B.c.#.k.G.0.V.U.1.1.2.3.i.i.i",
"QtQtQt.i.r.o.D.r.s.x.x.x.x.J.J.x.x.r.t.t.t.s.j.G.4.Q.1.U.Y.5.3.i.i.i",
"QtQtQt.6.x.x.x.x.x.x.x.x.x.J.x.x.x.B.s.m.H.m.t.G.P.7.8.1.1.8.9.i.i.i",
"QtQt#..x.x.x.x.x.x.x.x.x.x.x.x.x.x.E.t.H.c.#.D.G###a.2.5.5#b.9.i.i.i",
"Qt#..E.x.x.x.x.x.x.x.x.x.x.x.x.x.E.E.E.E.E.E.G#c.M#a#b#d.5#d.9.i.i.i",
".i#..E.x.x.x.x.x.x.x.x.x.x.x.x.x.E.E.E.E.E.j.G#c#e#f#d#d#d#d#g.i.i.i",
".i#.#..E.x#h.#.x.x.x.x.x.x.x.K.t.E.E.E.E.E.E#c.R.4#i#d#d#j#j#g.i.i.i",
".i.i.i.n.I.e.n.x.x.x.x.x.x.K.j.m#k.E#l.E#m#l#c#n#o#j#p#p#q#q#g.i.i.i",
".i.i.i.i.k.t.B.#.D.j.j.j.E.m.E.E.a.F.E#l#l#c#r#n#o#s#p#p#q#t#u.i.i.i",
".i.i.i.i.i.i.u.e.k.k.I.E.m.##k.B.H.w#v#l#c#l#w#x#y#i#p#q#t#t#u.i.i.i",
"Qt.i.i.i.i.i.D.m.j.m.z.m.j.a.e.k.m.o.G#c#z#w#A#B#y#i#q#t#C#C#D#E.i.i",
"QtQt.i.i.i.i.i.i.g.m.c.m.E.o.c.G.G.G#c#A#F#G#B.3#H#C#C#C#C#I#D#J.i.i",
"QtQtQtQt.i.i.i.i.f.G.G.G.G.G.G#A#r#K.R#B#L.3#M#N#O#C#C#C#I#P#D#Q.i.i",
"QtQtQtQtQt.i.i.i.w.H.L.4.P###n###R.W#S#M#N#H#O#O#O#I#I#I#I#P#T#Q.i.i",
"QtQtQtQtQtQt.i.i.e.m.Y.X.7#a#a#U#U#H#f#V#V#V#t#C#C#C#I#I#I#P#T#Q.i.i",
"QtQtQtQtQtQtQt.i.w.k#W.1.Y.8#b.8.8#X#j#p#q#t#t#C#C#I#P#P#P#P#Y#Q.i.i",
"QtQtQtQtQtQtQtQt.g#Z#a.0#0#0#M#M#M#1#2#g#2#3#4#5#D#D#D#T#Y#Y#Y#Q.i.i",
"QtQtQtQtQtQtQtQt.J#c#6#c#6#.#c#6#.#.#.#7#Q#c#Q#E#J#8#J#J#Q#J#Q#9.i.i",
"QtQtQtQtQtQtQtQt.i.i.i.i.i.i.i.i.i.i.i.i.i.i.i.i.i.i.i.i.i.i.i.i.i.i",
"QtQtQtQtQtQtQtQt.i.i.i.i.i.i.i.i.i.i.i.i.i.i.i.i.i.i.i.i.i.i.i.i.i.i"};
