/* XPM */
static char *parameters_icon[] = {
/* columns rows colors chars-per-pixel */
"34 34 114 2",
"   c #000000",
".  c #0a0a06",
"X  c #161612",
"o  c #2e261b",
"O  c #2e2a1e",
"+  c #322a1e",
"@  c #2a2622",
"#  c #2e2a24",
"$  c #2e2e2e",
"%  c #322a22",
"&  c #322e2a",
"*  c #333333",
"=  c #3d3d3d",
"-  c #523a2c",
";  c #66563c",
":  c #454545",
">  c #4a4a4a",
",  c #564644",
"<  c #525252",
"1  c #5c5957",
"2  c #5a5a5a",
"3  c #636363",
"4  c #6e6664",
"5  c #6b6b6c",
"6  c #747474",
"7  c #797674",
"8  c #7c7875",
"9  c #7b7b7b",
"0  c #8c7e6a",
"q  c #8c806d",
"w  c #87837e",
"e  c #8e8373",
"r  c #8f8678",
"t  c #908678",
"y  c #90897c",
"u  c #bc9c6d",
"i  c #bd9e73",
"p  c #bea27a",
"a  c #868686",
"s  c #8a8284",
"d  c #898989",
"f  c #938c84",
"g  c #938f89",
"h  c #94918c",
"j  c #969491",
"k  c #989695",
"l  c #9a9a9a",
"z  c #a5a196",
"x  c #bda481",
"c  c #bea98a",
"v  c #b5a995",
"b  c #b2a89b",
"n  c #bcab92",
"m  c #ababab",
"M  c #b8b3ab",
"N  c #b7b7b7",
"B  c #bcbab3",
"V  c #bababa",
"C  c #c0a583",
"Z  c #c1aa86",
"A  c #c3ac8d",
"S  c #c3ae92",
"D  c #c3b296",
"F  c #c4b39b",
"G  c #c5b7a0",
"H  c #c6b8a3",
"J  c #c6baaa",
"K  c #c7bfb4",
"L  c #c6c2b6",
"P  c #c8c1b7",
"I  c #e2c69e",
"U  c #e2c9a3",
"Y  c #e5ceaa",
"T  c #e6d1b2",
"R  c #e6d6bb",
"E  c #e8d4b4",
"W  c #e9d5b9",
"Q  c #ead9bd",
"!  c #c1c1c1",
"~  c #c8c7c5",
"^  c #c9c9c9",
"/  c #d2ccc0",
"(  c #d1d1cc",
")  c #dbd7ce",
"_  c #dfdace",
"`  c #d2d2d2",
"'  c #dad9d8",
"]  c #e5dac4",
"[  c #e4daca",
"{  c #ecdbc3",
"}  c #ebdeca",
"|  c #e1dbd2",
" . c #e4dfd9",
".. c #eee1cb",
"X. c #eae1d2",
"o. c #ece5db",
"O. c #eeeade",
"+. c #f0e2ce",
"@. c #f0e5d3",
"#. c #f2e8d7",
"$. c #f2e9dc",
"%. c #e2e2e2",
"&. c #efebe4",
"*. c #eaeaec",
"=. c #f4ede3",
"-. c #f4efe9",
";. c #f6f0e7",
":. c #f6f1e9",
">. c #f8f3eb",
",. c #f5f5f5",
"<. c #f9f6f1",
"1. c #faf8f5",
"2. c #fefefe",
"3. c None",
/* pixels */
"3.3.3.3.3.3.3.3.a 9 9 5 5 3 3 3 3 1 < : > = $       3.3.3.3.3.3.3.3.",
"3.3.3.3.3.3.3.3.6 ^ ^ ^ ^ ^ ^ ^ ^ ^ ! V m l l >   ^ ,.,.,.1.1.,.  3.",
"3.3.3.3.3.3.3.3.7 ^ 2.2.2.2.2.2.2.2.2.2.,.%.' > d   V ` ` ` ` `     ",
"3.3.3.3.3.3.3.3.6 ^ 2.2.2.2.2.2.2.2.2.2.2.,.%.> ^ d   m ! ! ! ~     ",
"3.3.3.3.3.3.3.3.6 ^ 2.2.2.2.2.2.2.2.2.2.2.2.,.> 2.^ d   m ! ! !     ",
"3.3.3.3.3.3.3.3.5 ^ 2.2.2.2.l l l l l l 2.2.2.< 2.2.^ d   m ! !     ",
"3.3.3.3.3.3.3.3.5 ^ 2.2.2.2.l l l l l l 2.2.2.2 %.2.2.^ d   m !     ",
"3.3.3.3.3.3.3.3.5 ^ 2.2.2.2.2.2.2.2.2.2.2.2.2.3 ^ ' 2.2.^ a   m     ",
"3.3.3.3.3.3.3.3.5 ^ 2.2.2.2.l l l l 2.2.2.2.2.5 < > > : = = *       ",
"3.3.3.3.3.3.l 3.5 ^ 2.l ' 2.2.2.2.2.2.2.2.2.2.1.' ( B z w 7 1       ",
"3.3.3.3.3.l , ; / *.f - s 2.2.2.2.2.2.2.2.2.2.2.2.%.' ~ M z 8       ",
"3.3.3.3.3.V 5 ~ M ^  .4 V 2.2.2.2.2.2.2.2.2.2.1.1.,.%.' / M f       ",
"3.3.3.3.3.3.3.3.4 ^ 2.1.2.2.l l l l l l l l l 1.,.-.&. .) / z       ",
"3.3.3.3.3.3.3.3.3 ^ 2.2.2.2.2.2.2.2.2.2.2.1.1.<.-.-.&.&.| [ b       ",
"3.3.3.3.3.3.3.3.3 ^ 2.2.2.2.l l l l l l l l k k j g g X.X.[ v       ",
"3.3.3.3.3.3.3.3.3 ^ 2.2.2.2.2.2.2.2.2.1.1.<.>.-.-.O.&.o.X.[ v       ",
"3.3.3.3.3.3.3.3.3 ^ 2.2.2.2.l l l l l k k k j j h g f o.X.] n       ",
"3.3.3.3.3.3.3.3.3 ^ 2.2.2.2.2.2.2.1.,.<.>.;.;.$.$.#......._ n       ",
"3.3.3.3.3.3.3.3.2 ^ 2.2.2.2.l l l l k j h j h h #.@.+...} { n       ",
"3.3.3.3.3.3.3.3.3 ^ 2.2.2.2.1.2.>.>.:.;.;.$.$.#.@.+.+.{ { ] c       ",
"3.3.3.3.3.3.l 3.2 ^ 2.l ' 2.1.<.>.>.;.=.$.$.#.+.+.+.{ { R R c       ",
"3.3.3.3.3.l , ; / *.g - s 1.j j j h g g f g g y y y y ] T R c       ",
"3.3.3.3.3.V 5 ~ M ^ X.4 V <.j ;.:.=.g $.#.@.+...{ Q r W E T x       ",
"3.3.3.3.3.3.3.3.2 ^ 2.2.<.>.h h g g f y y y y y t y e E T T x       ",
"3.3.3.3.3.3.3.3.2 ^ 1.<.>.-.h =.$.$.f +...+.{ Q Q W e T Y Y C o     ",
"3.3.3.3.3.3.3.3.< ^ 1.<.-.-.g f f y y y r t y r e e q Y Y U p +     ",
"3.3.3.3.3.3.3.3.1 ^ >.;.;.$.g $.@.@.y { Q Q W W E T q Y U I p o     ",
"3.3.3.3.3.3.3.3.1 ^ >.-.=.$.f y y y t r e e e e q q 0 I U I i o     ",
"3.3.3.3.3.3.3.3.1 ^ -.=.$.$.@.@.+...Q Q W W E T Y Y I I I I p o     ",
"3.3.3.3.3.3.3.3.> ^ &.$.$.o.......} Q Q W T T Y Y U I I I I u o     ",
"3.3.3.3.3.3.3.3.= P P K J J H H F D F S S A Z x p p p p u u u o     ",
"3.3.3.3.3.3.3.3.X % & % & # % & # O # & o % O + o # O O o o o .     ",
"3.3.3.3.3.3.3.3.                                                    ",
"3.3.3.3.3.3.3.3.                                                    "
};
