/* XPM */
static char *save_profile_icon[] = {
/* columns rows colors chars-per-pixel */
"32 32 241 2",
"   c #000000",
".  c #0d0703",
"X  c #0a0a06",
"o  c #120502",
"O  c #100801",
"+  c #180a01",
"@  c #151513",
"#  c #1f1a17",
"$  c #210f01",
"%  c #211001",
"&  c #21100e",
"*  c #26251f",
"=  c #2d251b",
"-  c #2e2a1e",
";  c #332a1d",
":  c #2a2622",
">  c #2d2924",
",  c #2e2e2f",
"<  c #322a22",
"1  c #322e2a",
"2  c #382f24",
"3  c #3e3e3e",
"4  c #443e37",
"5  c #443e3a",
"6  c #7f3903",
"7  c #7d3d15",
"8  c #494534",
"9  c #4f4a37",
"0  c #5b4728",
"q  c #5d4a36",
"w  c #644533",
"e  c #624f30",
"r  c #6e4c36",
"t  c #734629",
"y  c #764e2a",
"u  c #7b5128",
"i  c #494949",
"p  c #554c40",
"a  c #515151",
"s  c #5b5b5b",
"d  c #675242",
"f  c #645d52",
"g  c #7b5848",
"h  c #6e6454",
"j  c #6b635a",
"k  c #70685c",
"l  c #7d6f5c",
"z  c #636363",
"x  c #6b6b6b",
"c  c #716a60",
"v  c #786e60",
"b  c #7a7163",
"n  c #747474",
"m  c #7b7b7b",
"M  c #813a04",
"N  c #843c1c",
"B  c #8c4004",
"V  c #944504",
"C  c #94511c",
"Z  c #804f2f",
"A  c #834f31",
"S  c #83542f",
"D  c #835829",
"F  c #885a2f",
"G  c #805430",
"H  c #965534",
"J  c #9c5630",
"K  c #a44b04",
"L  c #a24d0f",
"P  c #a84e03",
"I  c #a6550d",
"U  c #aa5004",
"Y  c #b75604",
"T  c #b95600",
"R  c #b85804",
"E  c #a35e28",
"W  c #a15e3a",
"Q  c #ab6539",
"!  c #af723a",
"~  c #bb602e",
"^  c #805a42",
"/  c #807255",
"(  c #8b775a",
")  c #817765",
"_  c #8c7c66",
"`  c #897e6d",
"'  c #c35f04",
"]  c #c76227",
"[  c #e77604",
"{  c #eb7903",
"}  c #f17b03",
"|  c #f1780a",
" . c #fd7e00",
".. c #ff7b16",
"X. c #e76d24",
"o. c #e56430",
"O. c #e17631",
"+. c #f3712f",
"@. c #c67e5c",
"#. c #e07950",
"$. c #8c8272",
"%. c #928674",
"&. c #968a78",
"*. c #9d8d76",
"=. c #998d7a",
"-. c #9f917e",
";. c #b8824c",
":. c #a08d6f",
">. c #a29177",
",. c #a2937b",
"<. c #b48e6c",
"1. c #bc9c6d",
"2. c #b39c7a",
"3. c #bd9e73",
"4. c #bda27b",
"5. c #f78403",
"6. c #fd8401",
"7. c #fe8b02",
"8. c #ff8d17",
"9. c #ff9001",
"0. c #fd9524",
"q. c #fd932e",
"w. c #fd982e",
"e. c #fea332",
"r. c #ffa13a",
"t. c #c7825b",
"y. c #c18064",
"u. c #cc8062",
"i. c #d18260",
"p. c #dc946e",
"a. c #db9770",
"s. c #e5884c",
"d. c #e29558",
"f. c #ea9d53",
"g. c #e49c7d",
"h. c #eb9e77",
"j. c #fda141",
"k. c #fcab7f",
"l. c #fcb269",
"z. c #f7bb7a",
"x. c #fdb47e",
"c. c #fdbe7a",
"v. c #868686",
"b. c #8a8b8b",
"n. c #9d9181",
"m. c #939393",
"M. c #a39682",
"N. c #a59986",
"B. c #a59a89",
"V. c #aa9b84",
"C. c #b1a28b",
"Z. c #bea481",
"A. c #bea98e",
"S. c #b3a591",
"D. c #b7ab99",
"F. c #bdad93",
"G. c #bcae98",
"H. c #b1aca3",
"J. c #b3aea8",
"K. c #b5b1ac",
"L. c #bbb0a0",
"P. c #b6b5b3",
"I. c #b8b6b6",
"U. c #b8b8b7",
"Y. c #b9b9b9",
"T. c #c0a583",
"R. c #c1aa86",
"E. c #c2ab8c",
"W. c #c1af97",
"Q. c #c3b095",
"!. c #c1b29b",
"~. c #cab99d",
"^. c #d3bd9e",
"/. c #c5b6a0",
"(. c #c6b8a3",
"). c #c6baaa",
"_. c #cdbca3",
"`. c #c7bfb4",
"'. c #eaa282",
"]. c #f3ac83",
"[. c #f1ad8c",
"{. c #f2af97",
"}. c #fab28f",
"|. c #fbb390",
" X c #f9b99a",
".X c #c6c2b6",
"XX c #c8c1b7",
"oX c #d6c2a4",
"OX c #d4c6ac",
"+X c #dcc5a3",
"@X c #dac6aa",
"#X c #decaab",
"$X c #d4c8b3",
"%X c #d8c9b5",
"&X c #e2c69e",
"*X c #fecd9f",
"=X c #fdd49c",
"-X c #e2c9a3",
";X c #e3ccab",
":X c #efc1ae",
">X c #e0cdb2",
",X c #e4d0b0",
"<X c #ffc0a0",
"1X c #ffc9ad",
"2X c #ffc9b0",
"3X c #f6ddae",
"4X c #ffd1a9",
"5X c #f7deb0",
"6X c #fed5b4",
"7X c #f8d1be",
"8X c #fddcb1",
"9X c #fadcbb",
"0X c #f6eab7",
"qX c #f9efbc",
"wX c #c9c9c9",
"eX c #e3d4c1",
"rX c #e7dfcf",
"tX c #e8dac6",
"yX c #e8dac8",
"uX c #eee1ce",
"iX c #eee6da",
"pX c #eeeade",
"aX c #f2e2ce",
"sX c #fee1cb",
"dX c #ffeace",
"fX c #f0e5d3",
"gX c #f1e7d8",
"hX c #f2e8d7",
"jX c #f2eadb",
"kX c #ffeed8",
"lX c #fffecc",
"zX c #fff6dd",
"xX c #fffbdf",
"cX c #f4ede2",
"vX c #f5f0e6",
"bX c #f7f1e8",
"nX c #f8f3eb",
"mX c #f9f6f1",
"MX c #fbf9f4",
"NX c #fefefe",
"BX c None",
/* pixels */
"BXBXBXv.m m x x z z z z s i i i i i a a i a a a a a a a BXBXBXBX",
"BXBXBXm wXwXwXwXwXwXwXwXwXwXwXm.wXwXwXwXwXwXwXwXwXwXwXa BXBX    ",
"BXBXBXm wXNXNXNXNXNXNXNXNXNXNXY.NXNXNXNXNXNXNXNXNXNXwXi t f.l.lX",
"BXBXBXx wXNXNXNXNXNXNXNXNXNXNXY.NXNXNXNXNXNXNXNXNXNXwXy f.l.lXe.",
"BXBXBXx wXNXNXNXNXNXNXNXNXNXNXY.NXNXNXNXNXNXNXNXNXNXy f.l.0Xe.7.",
"BXBXBXx wXNXNXNXNXNXNXNXNXNXNXY.NXNXNXNXNXNXNXNXNXS f.l.3Xe.7.6.",
"BXBXBXx wXNXNXNXNXNXNXNXNXNXNXY.NXNXNXNXNXNXNXNXu f.l.0Xr. .6.6.",
"BXBXBXx m.Y.Y.Y.Y.Y.Y.Y.Y.Y.Y.Y.Y.Y.Y.Y.Y.Y.Y.D f.l.6Xw. .6.7.7.",
"BXBXBXx wXNXNXNXNXNXNXNXNXNXNXY.NXNXNXNXNXNXF f.l.8Xj. .6.6.7.5.",
"BXBXBXx wXNXNXNXNXNXNXNXNXNXNXY.NXNXNXMXNX! f.l.*Xq. .6.7.7.} ' ",
"BXBXBXx wXNXNXNXNXNXNXNXNXNXNXY.NXNXNXNXE f.l.=Xq. .6.6.7.{ ' P ",
"BXBXBXx wXNXNXNXNXNXNXNXNXNXNXY.NXNXMX@.f.x.c.0. .6.6.7.| R P M ",
"BXBXBXx wXNXNXNXNXNXNXNXNXNXNXY.NXNXd.z.].].8.6.6.7.7.[ Y K M   ",
"BXBXBXz m.Y.Y.Y.Y.Y.Y.Y.Y.Y.Y.Y.U.}.0XbX:Xs. .6.6.7.} R P B %   ",
"BXBXBXz wXNXNXNXNXNXNXNXNXNXNXI.MX4XnXsX{.O.5.7.9.{ R K B .     ",
"BXBXBXz wXNXNXNXNXNXNXNXNXNXMXI.}.MXzX<X].O.| ..{ R K M %       ",
"BXBXBXz wXNXNXNXNXNXNXNXNXMXMXK.4XzX6X[.#.o.+.X.T P V +         ",
"BXBXBXz wXNXNXNXNXNXNXNXMXMXmX}.MX6X Xp.y.] ~ I L 7 O           ",
"BXBXBXz wXNXNXNXNXNXNXmXMXmXnX4XdX1Xg.t.Q C t q N & h           ",
"BXBXBXs m.Y.U.U.U.U.P.P.P.K.}.zX2Xg.u.W S 0 q 3 o f 9           ",
"BXBXBXs wXNXNXNXNXMXmXmXnXbX4X7Xh.@.J Z q 8 5 @ ` $.l           ",
"BXBXBXs wXNXNXNXMXmXmXnXbX|.sX'.i.H A d :   $.$.$.=._         BX",
"BXBXBXs wXNXNXMXmXmXvXvXcX<.a.t.g w 4   b.$.$.&.,.C.:.      BXBX",
"BXBXBXs wXNXmXmXmXbXvXcX/ ; r g 2 @ b.$.$.%.=.V.F.~.2.    BXBXBX",
"BXBXBXs wXMXmXmXbXvXcX2.8 # =   b.$.$.&.=.,.C.Q.^.oX4.= BXBXBXBX",
"BXBXBXa m.I.K.J.J.H.H.,     b.c j j k b ) $.%.*.>.>.( ; BXBXBXBX",
"BXBXBXs wXmXbXbXcXjXgX9 b.L.B.k n.B.C.G.~.oX-X-X-X&X4.= BXBXBXBX",
"BXBXBXs wXbXcXcXjXgXfXyX$XD.B.b S.G.~.oX#X-X-X-X&X&X3.= BXBXBXBX",
"BXBXBXa wXbXcXjXgXfXaXyX%X~.G.$.oX@X#X;X;X-X&X-X-X&X3.= BXBXBXBX",
"BXBXBXi wXcXjXpXiXaXuXrXeX$XOX-.%X,X,X;X;X;X-X&X&X&X1.= BXBXBXBX",
"BXBXBX3 .XXX`.).).(.~.!.W.F.F._ E.E.A.4.4.4.4.3.1.1.1.= BXBXBXBX",
"BXBXBX@ < 1 < 1 > < 1 > > : > = = < - ; = : - - = - = X BXBXBXBX"
};
