/* XPM */
static char *scope_icon[] = {
/* columns rows colors chars-per-pixel */
"32 32 194 2",
"   c #000000",
".  c #000a07",
"X  c #0a0a06",
"o  c #00120d",
"O  c #001610",
"+  c #001c14",
"@  c #161612",
"#  c #00251b",
"$  c #00291e",
"%  c #002c21",
"&  c #003326",
"*  c #00372a",
"=  c #003b2c",
"-  c #2e261b",
";  c #2e2a1e",
":  c #322a1e",
">  c #363601",
",  c #2a2622",
"<  c #2e2a24",
"1  c #2e2e2e",
"2  c #322a22",
"3  c #322e2a",
"4  c #353535",
"5  c #3c3c3c",
"6  c #004232",
"7  c #004a36",
"8  c #024c3b",
"9  c #084537",
"0  c #00523d",
"q  c #035441",
"w  c #015a43",
"e  c #045f49",
"r  c #0d5343",
"t  c #0a5a47",
"y  c #0a5e49",
"u  c #016046",
"i  c #03634b",
"p  c #0a624d",
"a  c #016c51",
"s  c #096650",
"d  c #0c6b54",
"f  c #027355",
"g  c #027a5d",
"h  c #0f715a",
"j  c #146552",
"k  c #116e58",
"l  c #196f5b",
"z  c #12735b",
"x  c #1a745f",
"c  c #047e60",
"v  c #147c62",
"b  c #1f7d67",
"n  c #3a5650",
"m  c #4c4c01",
"M  c #454545",
"N  c #4a4a4a",
"B  c #515151",
"V  c #5c5957",
"C  c #585858",
"Z  c #646464",
"A  c #6c6c6c",
"S  c #747474",
"D  c #797674",
"F  c #7c7875",
"G  c #7b7b7b",
"H  c #038263",
"J  c #058865",
"K  c #078d6c",
"L  c #098466",
"P  c #098a67",
"I  c #0b8b69",
"U  c #0c906f",
"Y  c #0c9371",
"T  c #0e9a77",
"R  c #168368",
"E  c #148c6d",
"W  c #1a836a",
"Q  c #18886c",
"!  c #158e70",
"~  c #1d8c72",
"^  c #109474",
"/  c #129876",
"(  c #129b79",
")  c #199f7f",
"_  c #14a17e",
"`  c #239177",
"'  c #25947a",
"]  c #27997e",
"[  c #7d807f",
"{  c #16a582",
"}  c #1ba482",
"|  c #1aa885",
" . c #1dad89",
".. c #1bb08b",
"X. c #2c9b81",
"o. c #21a886",
"O. c #21b28e",
"+. c #23b591",
"@. c #25b994",
"#. c #2ab492",
"$. c #29b995",
"%. c #b2b202",
"&. c #87837e",
"*. c #978c7d",
"=. c #998d7e",
"-. c #bc9c6d",
";. c #bd9e73",
":. c #bea27a",
">. c #f6f602",
",. c #fefe02",
"<. c #808080",
"1. c #898989",
"2. c #968f83",
"3. c #988f82",
"4. c #999285",
"5. c #9a958c",
"6. c #9c9993",
"7. c #9e9c9b",
"8. c #a89b88",
"9. c #a09f9d",
"0. c #aea18c",
"q. c #a5a196",
"w. c #bda481",
"e. c #bea98a",
"r. c #b5a995",
"t. c #b2a89b",
"y. c #bcab92",
"u. c #bdb09c",
"i. c #a2a2a2",
"p. c #acacac",
"a. c #b8b3ab",
"s. c #bcbab3",
"d. c #bbbbbb",
"f. c #c0a583",
"g. c #c1aa86",
"h. c #c3ac8d",
"j. c #c3ae92",
"k. c #c3b296",
"l. c #c4b39b",
"z. c #c5b7a0",
"x. c #c6b8a3",
"c. c #c6baaa",
"v. c #cabba3",
"b. c #ccbeaa",
"n. c #c7bfb4",
"m. c #c6c2b6",
"M. c #cdc2b3",
"N. c #d2c0a5",
"B. c #d3c3aa",
"V. c #decaab",
"C. c #d0c8bb",
"Z. c #dfcfb7",
"A. c #e2c69e",
"S. c #e2c9a3",
"D. c #e5ceab",
"F. c #e5d1b2",
"G. c #e6d5bc",
"H. c #e8d4b5",
"J. c #e9d6ba",
"K. c #e9d8be",
"L. c #c3c3c3",
"P. c #c8c7c5",
"I. c #c9c9c9",
"U. c #d2ccc1",
"Y. c #d5cfc8",
"T. c #d4d2cc",
"R. c #dbd7ce",
"E. c #dfdace",
"W. c #d4d4d4",
"Q. c #d8d6d4",
"!. c #dbdbdb",
"~. c #e5dac4",
"^. c #e4daca",
"/. c #ebdbc3",
"(. c #ebddca",
"). c #e1dbd2",
"_. c #e4dfd9",
"`. c #eee1cb",
"'. c #ebe2d3",
"]. c #ece5da",
"[. c #eee9dd",
"{. c #f0e2ce",
"}. c #f1e6d4",
"|. c #f2e8d7",
" X c #f1e9dc",
".X c #e3e3e3",
"XX c #efebe4",
"oX c #f2ece2",
"OX c #f4efe9",
"+X c #f5f1ed",
"@X c #f8f1e9",
"#X c #f4f4f4",
"$X c #fdfdfd",
"%X c None",
/* pixels */
"%X%X%X%X%X%X%X%X1.G S A A Z Z Z Z C N N N 5 1 . %X%X%X%X%X%X%X%X",
"%X%X%X%X%X%X%X%XS I.I.I.I.I.I.I.I.I.L.d.p.7.7.M   %X%X%X%X%X%X%X",
"%X%X%X%X%X%X%X%XG P.$X$X$X$X$X$X$X$X$X$X#X.XW.M 1.  %X%X%X%X%X%X",
"%X%X%X%X%X%X%X%XS I.$X$X$X$X$X$X$X$X$X$X$X#X.XB I.1.  %X%X%X%X%X",
"%X        %X%X%XA I.$X$X$X$X$X$X$X$X$X$X$X$X#XN $XI.1.  %X%X%X%X",
"  !..           A P.$X#X$X$X#X$X$X$X#X$X$X$X$XB $X$XI.1.  %X%X%X",
"1 !.L.$XH g g f f a a i u u w q 0 0 7 7 6 .X#XC .X$X$XI.1.  %X%X",
"5 !.G C q 8 8 7 6 6 = * & % % # # + + o o d.XXZ P..X$X$XI.1.  %X",
"4 !.C   H H H g g f f a a >.m w w w 0 0 8 i.!.Z N N N M 5 5 1   ",
"4 !.C i e w q 0 8 7 6 6 = >.m # $ $ # + + i.!.#X!.T.s.q.&.D V   ",
"4 !.C Y Y K P H L c g f %.,.%.> 0 u w w q i.!.$X$X.X!.P.a.q.F   ",
"4 !.C d d p p y t 0 8 8 ,.m ,.m $ $ % # # i.!.#X#X#X.X!.U.a.2.  ",
". !.L.$XT Y Y Y P L L ,.%.> ,.m 0 u %.> w i.!.#XOX#XXX_.R.U.q.  ",
"  !.<.C h h d d p p %.,.m * %.,.m & ,.%.> q.W.OXOXOXoX].).E.t.  ",
"  !.C   { { ( / ^ ^ ,.m p i d ,.m ,.m ,.%.9.T.OX@XoX[.].'.E.r.  ",
"  !.C Q R %.> k k ,.%.> 9 8 0 >.m ,.m % ,.7.T.oXOX X X X).(.r.  ",
"  !.C  .%.,.%.> %.,.m h d L H %.>.m u w i 7.Y.[.oX X].].`.^.u.  ",
"  !.C %.,.m ,.m ,.m r 8 t y y r >.m & * = 6.U.]. X|.`.`.(.~.y.  ",
"  !.L.$Xm Q W ,.m ! v E ^ ^ I L %.> e a f 6.U.}.|.}.'.(.(./.y.  ",
"  !.&.C x l W %.> j z z k j p y t 0 = 6 6 5.C.'.}.{.{.K./.K.y.  ",
"  !.C   ~ | +.O.| Q } } ( ^ ^ Y P H c g g 5.C.(.{.{.{./.G.G.e.  ",
"  !.C ' b ` ] ` ~ W W v v z k s p e w 8 8 4.M.(.`./.K.K.F.F.e.  ",
"  !.C $.#.$.$.@.+.O. .| { _ ( Y U K J H c 2.M.~./.K.K.J.H.F.w.  ",
"  !.C X.X.X.] $XC   ~ W R $XC   d i e $Xn 2.b.~.K.K.J.F.H.F.w.  ",
"  !.C q.$X$X$X!.<.!.$X$X$X!.<.!.$X$X$X!.G W.l.F.K.J.H.D.D.D.f.: ",
"  L.C C C C C C C C C C C C C C C C C C C C 8.B.H.H.F.D.D.S.:.; ",
"                4 <.9.6.6.5.5.4.4.4.3.3.*.*.0.b.H.F.D.D.S.A.:.- ",
"                N p.Y.U.U.C.C.C.M.M.b.b.v.v.b.V.D.D.D.A.S.A.-.- ",
"%X              B P.oX X].`.`.(./.~./.J.F.F.F.D.D.D.S.S.S.A.-.: ",
"%X%X%X%X%X%X%X%XN I.OX[.XX X'.(.`.(./.K.J.F.F.D.D.S.A.S.A.A.-.- ",
"%X%X%X%X%X%X%X%X5 m.n.n.c.c.x.z.l.l.j.j.j.h.g.w.:.:.:.-.-.-.-.- ",
"%X%X%X%X%X%X%X%X@ 2 3 2 3 < 2 3 < < < < ; 2 ; : - , ; ; - ; - X "
};
