/* XPM */
static char *session_open_icon[] = {
/* columns rows colors chars-per-pixel */
"32 32 44 1",
"  c #000000",
". c #686865",
"X c #787876",
"o c #7b7b79",
"O c #925e34",
"+ c #de924c",
"@ c #ee9a50",
"# c #faa254",
"$ c #feb66c",
"% c #828282",
"& c #8b8b8a",
"* c #90908e",
"= c #939392",
"- c #989897",
"; c #9c9c9b",
": c #a0a09f",
"> c #a3a3a2",
", c #a8a8a6",
"< c #ababaa",
"1 c #b0b0af",
"2 c #b4b4b2",
"3 c #b8b8b7",
"4 c #bbbbba",
"5 c #c1c1be",
"6 c #fec080",
"7 c #feca8d",
"8 c #fecb96",
"9 c #fed096",
"0 c #fed49b",
"q c #fed7a0",
"w c #c4c4c3",
"e c #c8c8c7",
"r c #cbcbca",
"t c #d0d0cf",
"y c #d3d3d2",
"u c #d8d8d7",
"i c #dcdcda",
"p c #e0e0df",
"a c #e3e3e2",
"s c #e8e8e7",
"d c #ebebeb",
"f c #f2f2f3",
"g c #fdfdfd",
"h c None",
/* pixels */
"hhhhhhhhhhhhhhhhhhhhhhhhhhhhhhhh",
"hhhhhhhhhhhhh        hhhhh hhhhh",
"hhhhhhhhhhh            hh  hhhhh",
"hhhhhhhhh     hhhh         hhhhh",
"hhhhhhhh   hhhhhhhhhh      hhhhh",
"hhhhhhh  hhhhhhhhhhhhh     hhhhh",
"hhhhhhhhhhhhhhhhhhhhh      hhhhh",
"hhhhhhhhhhhhhhhhhhhh       hhhhh",
"hhh      hhhhhhhhhhhhhhhhhhhhhhh",
"hh #$$$$# hhhhhhhhhhhhhhhhhhhhhh",
"h $680086$ hhhhhhhhhhhhhhhhhhhhh",
" #68098776#             hhhhhhhh",
" $8q0876$$$$$$$$$$$$$$$$ hhhhhhh",
" $7096$##@@@@@@@@@@@@@@@ hhhhhhh",
" $008$#O                        ",
" $096$+ iggggggffdsapiyyrrw4444 ",
" $08$#O gsapiutrw432<,>;-*&%%%X ",
" $86$+ gidaaaiitrww422,,;-=%oX h",
" $8$#O suadddapiurww42<,:-=&X. h",
" $6$+ gyiaadddpiuyrw432<,;=%X hh",
" $$#O sruassaapiytrw422,>;=%. hh",
" $$+ dwtupsaapiuyrww32<,;-&X hhh",
" $#O s5tipppiuytrrw432<>;-%. hhh",
" $+ p5etuiuuuytrww432<,>-&o hhhh",
" #O s3wrtyyttteew432<,>;-%. hhhh",
" + u224wreereeww4322<,;-&X hhhhh",
" O y<244wwwww54422<,,;-=%. hhhhh",
"  r,<<222233322<<<,>;;*%X hhhhhh",
"  w>>>>,,,,>>>>;;--===%o. hhhhhh",
" w&&&&=&***=*&&&&%%oXXX. hhhhhhh",
"                         hhhhhhh",
"hhhhhhhhhhhhhhhhhhhhhhhhhhhhhhhh"
};
