/* XPM */
static char *session_save_icon[] = {
/* columns rows colors chars-per-pixel */
"32 32 22 1",
"  c #000000",
". c #2b2b2b",
"X c #353535",
"o c #525252",
"O c #5b5b5b",
"+ c #646464",
"@ c #6d6d6d",
"# c #747474",
"$ c #7c7c7c",
"% c #848484",
"& c #8c8c8c",
"* c #949494",
"= c #9b9b9b",
"- c #a2a2a2",
"; c #adadad",
": c #b3b3b3",
"> c #bababa",
", c #c1c1c1",
"< c #d4d4d4",
"1 c #e6e6e6",
"2 c #ffffff",
"3 c None",
/* pixels */
"333333333   33333333333333333333",
"33333333 ,,,   33333333333333333",
"33333333 ,>o===   33333333333333",
"33333333 ,,o======   33333333333",
"3333333 ,,,o222======   33333333",
"3333333 ,,o2222222=====*   33333",
"3333333 ,>o2222222222======.  33",
"333333 ,,>o2222222222222===.%% 3",
"333333 ,,o2222222222222222.%$$, ",
"333333 ,,o2222222222222222.$#,& ",
"33333 ,,>o2222222222222222.@@, 3",
"33333 ,,o2222222222222222.@@+, 3",
"33333 ,,o2222222222222222.++,* 3",
"3333 ,>>:...2222222222222.OO, 33",
"3333 >>:;;--...222222222.OOo, 33",
"3333 ::;--=**&&...222222.oo,& 33",
"333 :;;-==**&%%$#@...222.oo, 333",
"333 ;-=   &%%$$#@@++O...ooo, 333",
"333 == 222   #@@++OOoooooo,* 333",
"33 ==* 211222   +Ooooooooo, 3333",
"33 *&& 211111222 X ooooooo, 3333",
"33 && 21111111111X&   ooo,& 3333",
"3 &%% 2<<<<<<<<<X%%%% ooo, 33333",
"3 %%$ 2>,,,,,,,,X%%%% ooo, 33333",
"33   2;::;;;:;:;X$%$ ooo,* 33333",
"33333   =-=-===X$$$$ ooo, 333333",
"33333333   --==X##$# ooo, 333333",
"33333333333   -X@## ooO,& 333333",
"33333333333 33   @@ ooo, 3333333",
"33333333333333333   ooo, 3333333",
"33333333333333333333     3333333",
"33333333333333333333333333333333"
};
