/* XPM */
static char *start_icon[] = {
/* columns rows colors chars-per-pixel */
"32 32 132 2",
"   c #000000",
".  c #03090e",
"X  c #040d13",
"o  c #03131c",
"O  c #031621",
"+  c #051b27",
"@  c #031d29",
"#  c #001f3e",
"$  c #03202d",
"%  c #0c242f",
"&  c #00203f",
"*  c #0f2731",
"=  c #082c3f",
"-  c #002442",
";  c #002945",
":  c #0c3652",
">  c #0d3d5b",
",  c #0f405f",
"<  c #064b65",
"1  c #0e4363",
"2  c #0b4d69",
"3  c #0c506e",
"4  c #0c5573",
"5  c #0d5c7d",
"6  c #134565",
"7  c #134b63",
"8  c #194968",
"9  c #1d607b",
"0  c #22617c",
"q  c #2f6378",
"w  c #39697d",
"e  c #416b7d",
"r  c #14688e",
"t  c #136d92",
"y  c #1d769c",
"u  c #127fa3",
"i  c #28718f",
"p  c #227498",
"a  c #336d86",
"s  c #367088",
"d  c #307e9d",
"f  c #0e8bae",
"g  c #0e8eb5",
"h  c #0097bc",
"j  c #0c91b6",
"k  c #0c93bb",
"l  c #0d99be",
"z  c #1389ac",
"x  c #158db2",
"c  c #1091b8",
"v  c #1d94b5",
"b  c #1a92b8",
"n  c #189abb",
"m  c #10a1bf",
"M  c #2386ab",
"N  c #2190b6",
"B  c #0c9bc0",
"V  c #0aa1c3",
"C  c #0eabcc",
"Z  c #11a4c9",
"A  c #11acca",
"S  c #1da4c7",
"D  c #1da7c9",
"F  c #1aaccb",
"G  c #14b2ce",
"H  c #1db4cb",
"J  c #11b4d2",
"K  c #18b6d6",
"L  c #2eafce",
"P  c #22b6ce",
"I  c #2fb0ce",
"U  c #2db9cb",
"Y  c #25bbd3",
"T  c #2cbad2",
"R  c #35b3cf",
"E  c #37b8d1",
"W  c #38b5d1",
"Q  c #39bad4",
"!  c #31c0d7",
"~  c #36c3d8",
"^  c #22cce0",
"/  c #2bcce0",
"(  c #3bd8e6",
")  c #549bbb",
"_  c #43b5cf",
"`  c #44b3d1",
"'  c #4eb8d0",
"]  c #52bfd8",
"[  c #67bfd7",
"{  c #6db9d3",
"}  c #7db0c9",
"|  c #72b6d4",
" . c #43cee0",
".. c #49d5e4",
"X. c #48dfe9",
"o. c #5fd3e3",
"O. c #53e0ea",
"+. c #6ec9dd",
"@. c #7ec1d5",
"#. c #7acce0",
"$. c #84b3c8",
"%. c #82bfd8",
"&. c #96c0d3",
"*. c #95cade",
"=. c #81cee0",
"-. c #83d2e4",
";. c #9fcce1",
":. c #9cd3e7",
">. c #98d8e6",
",. c #9dd9e8",
"<. c #a2cfe2",
"1. c #acdbe7",
"2. c #acd9e8",
"3. c #b5d4e2",
"4. c #b0d9e6",
"5. c #b3deee",
"6. c #bcdeec",
"7. c #b5e0ec",
"8. c #bde3f0",
"9. c #c5dae3",
"0. c #c4e1ef",
"q. c #cfe3ef",
"w. c #c5e9f6",
"e. c #ceeaf6",
"r. c #d3ecf4",
"t. c #d8edf3",
"y. c #d2f0fc",
"u. c #d9f2fb",
"i. c #e5f3fa",
"p. c #f2f6fb",
"a. c #fefefe",
"s. c None",
/* pixels */
"s.s.s.s.s.s.s.s.s.s.s.s.s.s.s.s.s.s.s.s.s.s.s.s.s.s.s.s.s.s.s.s.",
"s.s.s.s.s.s.s.s.s.s.s.s.s.s.s.s.s.s.s.s.s.s.s.s.s.s.s.s.s.s.s.s.",
"s.s.s.s.s.s.s.s.s.s.s.s.s.s.s.s.s.s.s.s.s.s.s.s.s.s.s.s.s.s.s.s.",
"s.s.s.s.s.s.s.s.s.s.s.s.s.s.s.s.s.s.s.s.s.s.s.s.s.s.s.s.s.s.s.s.",
"s.s.s.s.s.s.s.s.s.s.s.s.s.s.s.: s.s.s.s.s.s.s.s.s.s.s.s.s.s.s.s.",
"s.s.s.s.s.s.s.s.s.s.s.s.s.s.s.: . s.s.s.s.s.s.s.s.s.s.s.s.s.s.s.",
"s.s.s.s.s.s.s.s.s.s.s.s.s.s.s., 0 * s.s.s.s.s.s.s.s.s.s.s.s.s.s.",
"s.s.s.s.s.s.s.s.s.s.s.s.s.s.s.6 ) q $ s.s.s.s.s.s.s.s.s.s.s.s.s.",
"s.s.s.s.s.s.s.s.s.s.s.s.s.s.s.8 } | s X s.s.s.s.s.s.s.s.s.s.s.s.",
"s.s.s.s.s.s.s.s.s.s.s.s.s.s.s.8 $.e.3.i o s.s.s.s.s.s.s.s.s.s.s.",
"s.s.s.s.s.s.s.s.s.s.s.s.s.s.s.8 $.6.q.3.w $ s.s.s.s.s.s.s.s.s.s.",
"s.s.s.s.s.  ; & & # # # & ; - , $.*.4.a.:.w o s.s.s.s.s.s.s.s.s.",
"s.s.s.s.s.  j j j j j j j j g g %.+.+.t.a.3.i X s.s.s.s.s.s.s.s.",
"s.s.s.s.s.  j 6.i.a.a.a.a.a.i.6.3.P I @.r.a.9.a @ s.s.s.s.s.s.s.",
"s.s.s.s.s.  j 8.2.r.i.i.r.5.:.#.Q h B R =.t.p.<.w % s.s.s.s.s.s.",
"s.s.s.s.s.  j 6.@.=.>.,.=.] ` ` V h k B W +.5.u.%.9   s.s.s.s.s.",
"s.s.s.s.s.  j 0.{ R _ ' E C A S j g k k ` o.X.Q N 3   s.s.s.s.s.",
"s.s.s.s.s.  j w.+.n f z f j l l g k Z C  ...T g 2 + s.s.s.s.s.s.",
"s.s.s.s.s.  j y.+.H H U U P F G J Z K ^ ( T z 4 + s.s.s.s.s.s.s.",
"s.s.s.s.s.  j y r r r t t t z k k C ^ X.T x 5 X s.s.s.s.s.s.s.s.",
"s.s.s.s.s.  @ O o O O O O o ; 5 B / ( T v 2 o s.s.s.s.s.s.s.s.s.",
"s.s.s.s.s.s.s.s.s.s.s.s.s.s.s.1 V / ~ x 2 @ s.s.s.s.s.s.s.s.s.s.",
"s.s.s.s.s.s.s.s.s.s.s.s.s.s.s.1 N L z 5 o s.s.s.s.s.s.s.s.s.s.s.",
"s.s.s.s.s.s.s.s.s.s.s.s.s.s.s.6 M M 3 . s.s.s.s.s.s.s.s.s.s.s.s.",
"s.s.s.s.s.s.s.s.s.s.s.s.s.s.s., p 7 @ s.s.s.s.s.s.s.s.s.s.s.s.s.",
"s.s.s.s.s.s.s.s.s.s.s.s.s.s.s.> 3 @ s.s.s.s.s.s.s.s.s.s.s.s.s.s.",
"s.s.s.s.s.s.s.s.s.s.s.s.s.s.s.: . s.s.s.s.s.s.s.s.s.s.s.s.s.s.s.",
"s.s.s.s.s.s.s.s.s.s.s.s.s.s.s.> s.s.s.s.s.s.s.s.s.s.s.s.s.s.s.s.",
"s.s.s.s.s.s.s.s.s.s.s.s.s.s.s.s.s.s.s.s.s.s.s.s.s.s.s.s.s.s.s.s.",
"s.s.s.s.s.s.s.s.s.s.s.s.s.s.s.s.s.s.s.s.s.s.s.s.s.s.s.s.s.s.s.s.",
"s.s.s.s.s.s.s.s.s.s.s.s.s.s.s.s.s.s.s.s.s.s.s.s.s.s.s.s.s.s.s.s.",
"s.s.s.s.s.s.s.s.s.s.s.s.s.s.s.s.s.s.s.s.s.s.s.s.s.s.s.s.s.s.s.s."
};
