/* XPM */
static char *stop_icon[] = {
/* columns rows colors chars-per-pixel */
"32 32 69 1",
"  c #000000",
". c #250100",
"X c #3f0100",
"o c #400200",
"O c #580200",
"+ c #5e2a21",
"@ c #630200",
"# c #6b0200",
"$ c #7c0200",
"% c #830300",
"& c #8c0300",
"* c #910300",
"= c #9b0400",
"- c #9e3c34",
"; c #b80601",
": c #b90902",
"> c #bd2717",
", c #bd2719",
"< c #bc433a",
"1 c #886158",
"2 c #9a7268",
"3 c #b04e44",
"4 c #bb6158",
"5 c #c13f36",
"6 c #c24136",
"7 c #c2453b",
"8 c #c2483e",
"9 c #c44b41",
"0 c #c84f46",
"q c #c65146",
"w c #c7564b",
"e c #c95047",
"r c #c9564a",
"t c #ca5a4e",
"y c #ca5c52",
"u c #cd6159",
"i c #d1655c",
"p c #d1685f",
"a c #cf6963",
"s c #c4726a",
"d c #cc726b",
"f c #d36a63",
"g c #d76f68",
"h c #db6f69",
"j c #d3726a",
"k c #db726b",
"l c #d27771",
"z c #d57974",
"x c #dc7670",
"c c #de7974",
"v c #e17b75",
"b c #e2807b",
"n c #d88e87",
"m c #dd928a",
"M c #cbbcb6",
"N c #e0968f",
"B c #e49a92",
"V c #e99f97",
"C c #ffb5af",
"Z c #ffb6b1",
"A c #ffb8b2",
"S c #dcccc7",
"D c #f4e4e2",
"F c #f8e9e7",
"G c #faebe9",
"H c #f5f5f4",
"J c #f8f8f7",
"K c #fdfdfd",
"L c None",
/* pixels */
"LLLLLLLLLLLLLLLLLLLLLLLLLLLLLLLL",
"LLLLLLLLLLLLLLLLLLLLLLLLLLLLLLLL",
"LLLLLLLLLL             LLLLLLLLL",
"LLLLLLLLL 00999988<<<<< LLLLLLLL",
"LLLLLLLL 0CGGGGGFDDDDM1+ LLLLLLL",
"LLLLLLL eZKVBBNNNmmms33$o LLLLLL",
"LLLLLL eAKnczzzllddddd4=$o LLLLL",
"LLLLL eAKnjkkkgffiur88::=$X LLLL",
"LLLL eZKmjkkvvkkffiye6>::=$o LLL",
"LLL eZKmjkkKkvvkkfpuyJ,>::=O. LL",
"LL 0CKVckkKKKkbvxjfuJHH>:;;$Oo L",
"LL 9GVckkKKKKKkvcjaJJHHH;;;&@o L",
"LL 9GBzkvhKKKKKkcfKJJHH>;;;*#o L",
"LL 9GBlkvvkKKKKKgKKJJH9>;;;*#o L",
"LL 9GBlkkcvkKKKKKKKJJw8>;;:&#X L",
"LL 9GNlfhxvbkKKKKKJJyw7>;;:*#X L",
"LL 9FNjfgjxcchKKKKJyye5>:;;&#X L",
"LL 8DmliafgjfKKKKJJH3<,,;;;*#o L",
"LL <DmdyuaapKJKJJJHHH5>;;;;*#X L",
"LL <DmdryufJKJJJyHHHHH;;;;;*#X L",
"LL <Dnd9rtJJJJHyywHHHHH;;;:&#o L",
"LL <Sss>6JJJHHwwq96HHHHH;;;&@o L",
"LL <236:>>HHH996<>>;HHH;;;*$OX L",
"LLL +-=;;;;H>>>>>;;;;H;;;*%@X LL",
"LLLL o$=;;;;;;;;;;;;;;;:*%@X LLL",
"LLLLL o$=:;;;;;;;;;;;;;*%@o LLLL",
"LLLLLL X$=::;;::;;;;;;*%@o LLLLL",
"LLLLLLL X$$&&*&**&***&$@o LLLLLL",
"LLLLLLLL XO@#########@Oo LLLLLLL",
"LLLLLLLLL XXXXXXXXXXXXo LLLLLLLL",
"LLLLLLLLLL             LLLLLLLLL",
"LLLLLLLLLLLLLLLLLLLLLLLLLLLLLLLL"
};
