/* XPM */
static char *synchronoscope_icon[] = {
/* columns rows colors chars-per-pixel */
"34 34 237 2",
"   c #000000",
".  c #0a0a06",
"X  c #021602",
"o  c #061c06",
"O  c #121e02",
"+  c #161612",
"@  c #042402",
"#  c #032a02",
"$  c #0e2202",
"%  c #0e2a02",
"&  c #063202",
"*  c #0a3606",
"=  c #0e320a",
"-  c #0a3a06",
";  c #12260e",
":  c #1e3202",
">  c #2e261b",
",  c #2e2a1e",
"<  c #263e1e",
"1  c #322a1e",
"2  c #2a2622",
"3  c #2e2a24",
"4  c #2e2e2e",
"5  c #322a22",
"6  c #322e2a",
"7  c #3a3a26",
"8  c #333333",
"9  c #3d3d3d",
"0  c #044302",
"q  c #0b4502",
"w  c #0c4a02",
"e  c #1e460e",
"r  c #165e06",
"t  c #1e5a0a",
"y  c #1a660a",
"u  c #1e6e0e",
"i  c #127202",
"p  c #1e7206",
"a  c #1a7e0a",
"s  c #2a5212",
"d  c #2a5a1a",
"f  c #2e522e",
"g  c #2a5e26",
"h  c #32462e",
"j  c #325632",
"k  c #365e36",
"l  c #267e0a",
"z  c #2e7e26",
"x  c #3a6e2e",
"c  c #367a2a",
"v  c #425e36",
"b  c #4e5632",
"n  c #454545",
"m  c #4b4b4a",
"M  c #565646",
"N  c #52524e",
"B  c #525252",
"V  c #5c5957",
"C  c #5c5c5b",
"Z  c #4e6e4e",
"A  c #5e625e",
"S  c #527452",
"D  c #62625e",
"F  c #646462",
"G  c #6e6e66",
"H  c #6b6b6b",
"J  c #6e7a66",
"K  c #737373",
"L  c #797675",
"P  c #7c7875",
"I  c #7c7c7b",
"U  c #268606",
"Y  c #26820a",
"T  c #2a860e",
"R  c #2e8a06",
"E  c #2c8a0a",
"W  c #328e0e",
"Q  c #32831c",
"!  c #368e16",
"~  c #328a1a",
"^  c #33940b",
"/  c #3e9616",
"(  c #3e9e13",
")  c #3e9a1a",
"_  c #3a8626",
"`  c #3a8b25",
"'  c #3a8a2a",
"]  c #3e8232",
"[  c #429e1e",
"{  c #468632",
"}  c #469626",
"|  c #46922a",
" . c #4e9a2e",
".. c #4e9a32",
"X. c #4ea62e",
"o. c #52aa2a",
"O. c #5aa63a",
"+. c #5aaa32",
"@. c #6e8e5e",
"#. c #6aaa4e",
"$. c #6ea656",
"%. c #72b25a",
"&. c #76ba56",
"*. c #7abe5e",
"=. c #84827e",
"-. c #bc9c6d",
";. c #bd9e73",
":. c #bea27a",
">. c #8ac46c",
",. c #94c47e",
"<. c #868686",
"1. c #898989",
"2. c #8e9e8e",
"3. c #968f85",
"4. c #959595",
"5. c #9f9991",
"6. c #9c9c9c",
"7. c #92a28a",
"8. c #94ba84",
"9. c #a0998f",
"0. c #a19b92",
"q. c #a39e98",
"w. c #a6a095",
"e. c #a4a19b",
"r. c #a8a094",
"t. c #aaa69e",
"y. c #bda481",
"u. c #bea98a",
"i. c #b5a995",
"p. c #b1a89b",
"a. c #bcab92",
"s. c #a3a4a2",
"d. c #a6aaaa",
"f. c #aba9a5",
"g. c #adadad",
"h. c #a6bea2",
"j. c #aeb2ae",
"k. c #b7afa4",
"l. c #b9afa1",
"z. c #b6b0a5",
"x. c #b7b2a9",
"c. c #bdb4a4",
"v. c #b9b4ab",
"b. c #b4b4b4",
"n. c #b2bab2",
"m. c #bab9b4",
"M. c #bbbbba",
"N. c #9aca82",
"B. c #a2ce8e",
"V. c #a6c29e",
"C. c #aad696",
"Z. c #aad69a",
"A. c #aec2aa",
"S. c #b4ccaa",
"D. c #bac6b6",
"F. c #bacab2",
"G. c #bedaae",
"H. c #c0a583",
"J. c #c1aa86",
"K. c #c3ac8d",
"L. c #c3ae92",
"P. c #c3b296",
"I. c #c4b39b",
"U. c #c5b7a0",
"Y. c #c6b8a3",
"T. c #c4b9aa",
"R. c #c7bfb4",
"E. c #c2bec2",
"W. c #c6c2b6",
"Q. c #c3c2bc",
"!. c #c2cebe",
"~. c #c8c1b7",
"^. c #c2d2be",
"/. c #c6deba",
"(. c #d1c5b4",
"). c #d3c8b6",
"_. c #dcd0bc",
"`. c #cae6be",
"'. c #e2c69e",
"]. c #e2c9a3",
"[. c #e5ceaa",
"{. c #e6d1b1",
"}. c #e5d6bc",
"|. c #e8d3b4",
" X c #e9d5b9",
".X c #ead9bd",
"XX c #c4c4c4",
"oX c #c8c7c5",
"OX c #cacac6",
"+X c #cacac9",
"@X c #cedaca",
"#X c #d2ccc0",
"$X c #d3ced3",
"%X c #d1d1cd",
"&X c #dcd2c3",
"*X c #dcd6cc",
"=X c #dfdace",
"-X c #d5d3d3",
";X c #d6dad6",
":X c #d9d7d5",
">X c #dad6da",
",X c #ddd8d0",
"<X c #dcdad9",
"1X c #dedee2",
"2X c #cee6c6",
"3X c #dae6d6",
"4X c #daead6",
"5X c #e6d7c0",
"6X c #e5d8c3",
"7X c #e4daca",
"8X c #ebdbc3",
"9X c #ecdec9",
"0X c #e2dcd4",
"qX c #e4dfd9",
"wX c #e2dee2",
"eX c #eee0cb",
"rX c #e7e2dd",
"tX c #ebe2d3",
"yX c #ece5db",
"uX c #e3f2dc",
"iX c #f0e2cf",
"pX c #f1e6d4",
"aX c #f1e8db",
"sX c #e2e2e1",
"dX c #ebe9e5",
"fX c #ebebed",
"gX c #eee6f2",
"hX c #eef2ea",
"jX c #f1ece3",
"kX c #f2eee8",
"lX c #f5f2ee",
"zX c #f2faee",
"xX c #f4f5f4",
"cX c #f8f6f3",
"vX c #fafaf6",
"bX c #fefefe",
"nX c None",
/* pixels */
"nXnXnXnXnXnXnXnX<.I L H H F F F A B B m m 9 4       nXnXnXnXnXnXnXnX",
"nXnXnXnXnXnXnXnXK +X+X+X+X+X+X+X+X+XE.M.g.6.6.n       nXnXnXnXnXnXnX",
"nXnXnXnXnXnXnXnXL +XbXbXbXbXbXbXbXbXbXbXxXsX<Xn 1.      nXnXnXnXnXnX",
"nXnXnXnXnXnXnXnXK +XbXbXbXbXbXbXbXbXbXbXbXxXsXm +X1.      nXnXnXnXnX",
"nXnXnXnXnXnXnXnXH +XbXbXbXbXbXbXbXbXbXbXbXbXxXm bX+X1.      nXnXnXnX",
"nXnXnXnXnXnXnXnXm G I J L t.bXbXbXbXbXbXbXbXbXB bXbX+X1.      nXnXnX",
"nXnXnXnXnXnXm K M.<XgX,.!.t.H N xXbXbXbXbXbXbXC 1XbXbX+X1.      nXnX",
"nXnXnXnXnXC -XxXvXvXzX>.>.@X$Xb.C fXxXbXbXbXbXF XXrXbXbX+X1.      nX",
"nXnXnXnXF ;XvXzX4XZ.&.( / ) S.1XM.F sXxXbXbXbXH B m n n 9 9 8       ",
"nXnXnXm W.zXuX`.C.&.o.^ ^ E } S.>Xj.B sXxXbXbXvX<X+Xm.e.=.P V       ",
"nXnX7 7.dXuXC.>.+.[ ) ^ W W U a -XM.4.n 1XcXbXbXbXsX<XOXx.w.P       ",
"nXnXv G.uX/.&.X.( ^ ^ ^ W T Y ' F.+Xg.C +XsXxXvXvXxXsX<X#Xv.3.      ",
"nXe @.3X/.B.+.( ^ ^ W E T l ` A.>X+XM.=.M +XdXxXlXlXdXqX*X#Xw.      ",
"nXj ,.2XN.%.[ W ^ R ..T l ` F.<X+X-XQ.d.D M.:XkXkXkXjXyX,X,Xp.      ",
"nXd 8.@X>.O.^ W E ` ^.i ' A.-X+X+XXXXXg.F f.XXyXkXaXdXyXtX=Xi.      ",
"nXd $.N.#.| R U ` S.fXQ n.-X+XoXXXXXb.s.F t.m.0XjXaXyXyXtX9Xi.      ",
"nXs | %.O.! Y ' A.1X:XA.$X+XoXD.XXM.M.s.F e.v.*XdXaXtXtXtX7Xa.      ",
"nXe c ..| T ~ V.1X<X;X-X+X+X+XQ.XXM.M.4.D e.x.*XpXaXtXtXeX6Xa.      ",
"nXO t Q Q Q S.1X:X+X+X+X+XE.M.M.b.M.g.K b e.x.&XpXpXiX8X9X8Xa.      ",
"nX  = y l { XXqX%X-X+XXXXXE.M.m.b.b.4.7 5.q.z.&XtXiXiX8X6X.Xa.      ",
"nX  o q u l c D.-X+X+XoXM.D.E.M.b.b.h : 5.w.v.6XeXeX9X.X}.}.u.      ",
"nX    @ w y y c h.OXoXXXE.E.g.2.k * O 5.5.p.).7X9X9X.X.X|.}.u.      ",
"nXnX    ; q r r x n.$XZ S S j 0 # % 5.9.w.c._.8X9X.X.X.X|.{.y.      ",
"nXnX      X & q w g g.0 w 0 & # O 5.5.w.c.).6X8X.X.X.X|.{.{.y.      ",
"nXnXnX      X o # & f & & @ % O 9.9.q.l.(..X8X8X.X X|.{.[.[.H.1     ",
"nXnXnXnX        j - j - & j 0.0.9.r.l.(..X8X.X.X X|.{.[.[.].:.,     ",
"nXnXnXnXnX      n 4.f.e.e.q.0.q.i.T.(.5X8X8X X X|.{.[.[.].'.:.>     ",
"nXnXnXnXnXnX    m g.W.v.x.z.z.c.~._.5X8X.X X X{.{.[.[.'.].'.-.>     ",
"nXnXnXnXnXnXnX  B E.qX*X&X&X&X&X.X8X8X.X X X{.{.[.[.].].].'.-.1     ",
"nXnXnXnXnXnXnXnXm +XdXaXyXtX9X9XtX9X8X.X X{.{.{.[.].'.'.'.'.-.>     ",
"nXnXnXnXnXnXnXnX9 ~.R.R.T.T.Y.U.I.I.P.L.K.K.J.y.:.:.:.;.-.-.-.>     ",
"nXnXnXnXnXnXnXnX+ 5 6 5 6 6 5 6 3 , 3 3 3 5 > 1 , 2 , , > , > .     ",
"nXnXnXnXnXnXnXnX                                                    ",
"nXnXnXnXnXnXnXnX                                                    "
};
